<svg width="75" height="82" viewBox="0 0 75 82" fill="none" xmlns="http://www.w3.org/2000/svg">
<g clip-path="url(#clip0_315_196)">
<path d="M36.4157 43.2146C24.5007 43.2146 14.8083 33.5222 14.8083 21.6073C14.8083 9.6924 24.5007 0 36.4157 0C48.3306 0 58.023 9.6924 58.023 21.6073C58.023 33.5222 48.3306 43.2146 36.4157 43.2146ZM36.4157 1.33725C25.2389 1.33725 16.1456 10.4306 16.1456 21.6073C16.1456 32.7841 25.2389 41.8774 36.4157 41.8774C47.5924 41.8774 56.6857 32.7841 56.6857 21.6073C56.6857 10.4306 47.5924 1.33725 36.4157 1.33725Z" fill="white"/>
<path d="M18.2505 31.4948V30.5239C18.2505 30.4945 18.2585 30.4651 18.2746 30.441L30.2537 12.3747C30.3205 12.2731 30.2483 12.1394 30.128 12.1394H18.542C18.4591 12.1394 18.3896 12.0725 18.3896 11.9869V10.9278C18.3896 10.8449 18.4564 10.7754 18.542 10.7754H32.1526C32.2355 10.7754 32.305 10.8423 32.305 10.9278V11.8987C32.305 11.9281 32.297 11.9575 32.2809 11.9816L20.2992 30.0479C20.2323 30.1495 20.3045 30.2832 20.4249 30.2832H32.2916C32.3745 30.2832 32.4441 30.3501 32.4441 30.4357V31.4948C32.4441 31.5777 32.3772 31.6472 32.2916 31.6472H18.4029C18.32 31.6472 18.2505 31.5803 18.2505 31.4948V31.4948Z" fill="white"/>
<path d="M32.043 14.5466V1.1875H33.6851V14.5734C33.6851 18.414 35.8274 20.9735 39.5556 20.9735C43.2839 20.9735 45.5118 18.414 45.5118 14.5734V2.4044L46.9854 3.39397V14.5466C46.9854 19.2217 44.2574 22.3375 39.5556 22.3375C34.8539 22.3375 32.043 19.2217 32.043 14.5466Z" fill="white"/>
<path d="M33.5244 20.6043V42.2036H32.0508V17.5554H33.8587L41.5453 30.9868C41.6041 31.0884 41.7512 31.0884 41.81 30.9868L49.3281 17.7079C49.3816 17.6116 49.4832 17.5527 49.5928 17.5527H51.0745C51.1574 17.5527 51.227 17.6196 51.227 17.7052V37.443L49.5848 38.4246V20.5241C49.5848 20.369 49.3789 20.3128 49.3013 20.4492L42.1871 33.0649C42.1337 33.1611 42.032 33.22 41.9224 33.22H41.1896C41.0799 33.22 40.9809 33.1611 40.9248 33.0675L33.8106 20.5295C33.733 20.3931 33.5271 20.4492 33.5271 20.6043H33.5244Z" fill="white"/>
<path d="M32.5482 14.8247H32.0508V18.1545H32.5482V14.8247Z" fill="white"/>
<path d="M50.9971 10.8022H49.7642C49.6386 10.8022 49.5369 10.904 49.5369 11.0296V14.3406C49.5369 14.4662 49.6386 14.5679 49.7642 14.5679H50.9971C51.1227 14.5679 51.2245 14.4662 51.2245 14.3406V11.0296C51.2245 10.904 51.1227 10.8022 50.9971 10.8022Z" fill="white"/>
</g>
<path d="M9.70522 51.2734V52.6334H13.1052V51.2734H9.70522ZM15.3322 51.2734V52.6334H18.7832V51.2734H15.3322ZM17.8822 48.9274V62.1364C17.8822 62.3574 17.8142 62.4424 17.6102 62.4424C17.4062 62.4424 16.7772 62.4594 16.1652 62.4254C16.4032 62.9014 16.6242 63.7514 16.6752 64.2444C17.7802 64.2444 18.5112 64.2104 19.0382 63.8874C19.5822 63.5814 19.7352 63.0544 19.7352 62.1704V48.9274H17.8822ZM8.85522 48.9274V64.2444H10.6742V48.9274H8.85522ZM9.75622 48.9274V50.4234H12.1872V53.5344H9.75622V55.0474H13.8362V48.9274H9.75622ZM11.7452 58.2944V59.7394H16.7942V58.2944H11.7452ZM11.4732 55.8804V57.3594H17.1002V55.8804H11.4732ZM11.2182 60.9124V62.3914H17.3722V60.9124H11.2182ZM18.7492 48.9274H14.5842V55.0474H18.7492V53.5344H16.3012V50.4234H18.7492V48.9274ZM4.87722 49.9134C5.81222 50.3554 7.00222 51.1034 7.52922 51.6474L8.75322 50.0154C8.15822 49.4884 6.96822 48.8254 6.03322 48.4344L4.87722 49.9134ZM4.31622 54.4524C5.26822 54.8774 6.44122 55.5744 6.98522 56.1014L8.17522 54.4524C7.59722 53.9254 6.39022 53.3134 5.43822 52.9564L4.31622 54.4524ZM4.50322 63.0204L6.35622 64.0574C7.05322 62.3914 7.78422 60.4194 8.37922 58.6004L6.73022 57.5464C6.05022 59.5354 5.14922 61.6944 4.50322 63.0204ZM13.4112 56.9174V61.4904H15.0602V56.9174H13.4112ZM23.1522 49.1144V54.1294C23.1522 56.8324 22.9992 60.6404 21.2312 63.2244C21.7582 63.4284 22.6592 63.9554 23.0502 64.2954C24.9202 61.5244 25.2092 57.0874 25.2092 54.1294V49.1144H23.1522ZM24.5632 49.1144V50.8994H33.9982V52.0724H24.5632V53.8574H36.0552V49.1144H24.5632ZM24.5632 55.2684V57.0874H36.9222V55.2684H24.5632ZM27.0282 61.9664V63.7514H34.8142V61.9664H27.0282ZM29.8842 53.7214V59.1954H31.9242V53.7214H29.8842ZM26.0252 58.4984V64.2444H27.9802V60.2834H33.7772V64.2274H35.8172V58.4984H26.0252ZM39.0812 49.6584V52.6504H40.9172V51.2394H51.7122V52.6504H53.6332V49.6584H39.0812ZM45.5922 52.2424C45.5072 53.3134 45.3542 54.6224 45.1842 55.5064H46.9012C47.0372 54.6564 47.1732 53.3474 47.2752 52.2424H45.5922ZM42.7872 58.8554H49.8932V59.3824H42.7872V58.8554ZM42.7872 60.3514H49.8932V60.8954H42.7872V60.3514ZM42.7872 57.3934H49.8932V57.8864H42.7872V57.3934ZM40.8322 56.3564V61.9154H51.9672V56.3564H40.8322ZM47.0542 62.6804C49.0262 63.2074 51.0322 63.8704 52.2392 64.3464L53.6332 63.1054C52.2902 62.6464 50.0972 62.0004 48.1252 61.5244L47.0542 62.6804ZM43.3312 52.8034H49.3492L49.1792 54.8434H43.0592L43.3312 52.8034ZM41.6482 51.7834L41.1212 55.8804H50.9472L51.3382 51.7834H41.6482ZM44.1302 61.5414C43.0422 62.1194 40.6792 62.7314 38.7752 62.9694C39.1322 63.3434 39.6082 63.9724 39.8632 64.3464C41.8522 64.0574 44.2322 63.4114 45.6772 62.6464L44.1302 61.5414ZM38.5882 53.0754V54.5374H42.4982V54.3164H50.0292V54.5374H54.1772V53.0754H50.0292V53.2964H42.4982V53.0754H38.5882ZM44.8272 48.6384C45.1672 49.2504 45.5412 50.0834 45.6602 50.6274L47.5472 50.0664C47.3772 49.5394 46.9862 48.7234 46.5952 48.1284L44.8272 48.6384ZM55.8092 58.6854V60.3514H70.9732V58.6854H55.8092ZM55.8432 51.0524V52.6674H70.9052V51.0524H55.8432ZM56.5402 54.1464V55.7104H70.2592V54.1464H56.5402ZM57.3902 56.4584V57.9374H69.4602V56.4584H57.3902ZM62.3202 54.9114V64.2444H64.3432V54.9114H62.3202ZM60.8752 48.2644V51.8514H62.7622V48.2644H60.8752ZM64.0202 48.2644V51.7324H65.9412V48.2644H64.0202ZM67.9302 48.4004C67.6922 49.1484 67.2502 50.1854 66.8422 50.8824L68.5082 51.3924C68.9502 50.7634 69.5112 49.8454 70.0722 48.9104L67.9302 48.4004ZM65.8392 52.5314C65.6352 52.9394 65.2272 53.5344 64.9042 53.9764L66.6382 54.4864C67.0122 54.1294 67.5052 53.6534 67.9982 53.0754L65.8392 52.5314ZM57.0842 48.9444C57.5602 49.7264 58.0872 50.7634 58.2912 51.4264L60.1272 50.7634C59.9062 50.1004 59.3452 49.0804 58.8352 48.3494L57.0842 48.9444ZM59.0562 52.9054C59.3452 53.3814 59.6682 54.0274 59.7872 54.4184L61.7932 53.9424C61.6232 53.5344 61.2832 52.9224 60.9942 52.4804L59.0562 52.9054ZM60.4502 60.9124C59.4302 61.5584 57.4412 62.1364 55.7412 62.3744C56.1322 62.7484 56.6762 63.4114 56.9482 63.8534C58.6992 63.4454 60.7392 62.5444 61.9122 61.5754L60.4502 60.9124ZM65.0572 61.7794C66.5022 62.3744 68.4912 63.2924 69.4772 63.8364L70.9222 62.7314C69.8342 62.1874 67.8112 61.3374 66.4342 60.8104L65.0572 61.7794Z" fill="white"/>
<path d="M21.136 71.7285H23.856V70.9785H22.236L23.841 68.5435V68.0035H21.291V68.7485H22.741L21.136 71.1885V71.7285ZM26.8503 71.7985C27.8653 71.7985 28.5553 71.0685 28.5553 69.8485C28.5553 68.6335 27.8653 67.9385 26.8503 67.9385C25.8353 67.9385 25.1453 68.6285 25.1453 69.8485C25.1453 71.0685 25.8353 71.7985 26.8503 71.7985ZM26.8503 71.0285C26.3603 71.0285 26.0603 70.5685 26.0603 69.8485C26.0603 69.1285 26.3603 68.7035 26.8503 68.7035C27.3403 68.7035 27.6453 69.1285 27.6453 69.8485C27.6453 70.5685 27.3403 71.0285 26.8503 71.0285ZM30.246 71.7285H31.141V70.7535L31.546 70.2035L32.426 71.7285H33.401L32.066 69.4985L33.191 68.0035H32.211L31.156 69.4785H31.141V68.0035H30.246V71.7285ZM36.1344 71.7985C37.1244 71.7985 37.6244 71.2335 37.6244 69.9785V68.0035H36.7644V70.0735C36.7644 70.7785 36.5394 71.0285 36.1344 71.0285C35.7244 71.0285 35.5144 70.7785 35.5144 70.0735V68.0035H34.6244V69.9785C34.6244 71.2335 35.1394 71.7985 36.1344 71.7985ZM39.2229 71.7285H41.9429V70.9785H40.3229L41.9279 68.5435V68.0035H39.3779V68.7485H40.8279L39.2229 71.1885V71.7285ZM44.9508 71.7985C45.9408 71.7985 46.4408 71.2335 46.4408 69.9785V68.0035H45.5808V70.0735C45.5808 70.7785 45.3558 71.0285 44.9508 71.0285C44.5408 71.0285 44.3308 70.7785 44.3308 70.0735V68.0035H43.4408V69.9785C43.4408 71.2335 43.9558 71.7985 44.9508 71.7985ZM48.2743 71.7285H49.0743V70.4535C49.0743 70.0835 49.0043 69.5285 48.9593 69.1635H48.9793L49.2793 70.0535L49.7843 71.4135H50.2743L50.7743 70.0535L51.0843 69.1635H51.1093C51.0593 69.5285 50.9893 70.0835 50.9893 70.4535V71.7285H51.8043V68.0035H50.8343L50.2643 69.6135C50.1943 69.8285 50.1343 70.0635 50.0593 70.2885H50.0343C49.9643 70.0635 49.9043 69.8285 49.8293 69.6135L49.2393 68.0035H48.2743V71.7285ZM53.6591 71.7285H54.5541V68.0035H53.6591V71.7285Z" fill="white"/>
<defs>
<clipPath id="clip0_315_196">
<rect width="43.2146" height="43.2146" fill="white" transform="translate(14.8083)"/>
</clipPath>
</defs>
</svg>
