<svg width="68" height="71" viewBox="0 0 68 71" fill="none" xmlns="http://www.w3.org/2000/svg">
<g clip-path="url(#clip0_315_216)">
<path d="M0.52832 67.356V67.8742L1.75446 67.8761V70.8278H2.51143L2.5134 67.8742L3.74151 67.8761V67.356H0.52832Z" fill="white"/>
<path d="M6.48562 67.3579V69.5293C6.48562 69.8741 6.42057 70.1066 6.3082 70.2248C6.19584 70.3332 6.04405 70.3943 5.84495 70.3943C5.64782 70.3943 5.48224 70.3332 5.35607 70.211C5.24174 70.1027 5.17866 69.8564 5.17866 69.482V67.3579H4.41577V69.4761C4.41577 69.8741 4.469 70.1677 4.59713 70.3569C4.71935 70.544 4.87902 70.68 5.08601 70.7706C5.29891 70.8692 5.54532 70.9145 5.82918 70.9145C6.1229 70.9145 6.35748 70.8652 6.55856 70.7647C6.74583 70.6623 6.89367 70.5243 7.00012 70.345C7.1046 70.1716 7.15191 69.88 7.15191 69.4859V67.3579H6.48168H6.48562Z" fill="white"/>
<path d="M10.2626 67.3599V69.6357L8.72299 67.3579H8.05275L8.05078 70.8298H8.66385L8.66582 68.552L10.2014 70.8317H10.8776L10.8796 67.3599H10.2626Z" fill="white"/>
<path d="M13.8777 69.2261V70.3571C13.7811 70.3788 13.6944 70.3867 13.6175 70.3867C13.2509 70.3867 12.9571 70.2704 12.764 70.0379C12.557 69.8074 12.4564 69.4921 12.4564 69.0941C12.4564 68.7335 12.5373 68.4261 12.7166 68.168C12.8842 67.9158 13.1582 67.7916 13.5604 67.7916C13.6806 67.7916 13.8068 67.8015 13.9428 67.8232C14.0768 67.8409 14.3035 67.904 14.613 68.0104L14.6406 68.0222V67.4094L14.6268 67.4035C14.2444 67.3168 13.8758 67.2754 13.4973 67.2754C13.0537 67.2754 12.7009 67.3483 12.4288 67.5079C12.1667 67.6596 11.9715 67.8803 11.8394 68.1621C11.7133 68.434 11.6462 68.7453 11.6462 69.0901C11.6462 69.6123 11.7961 70.0517 12.0839 70.3965C12.3835 70.7433 12.8645 70.9187 13.5111 70.9187C13.6629 70.9187 13.8147 70.9068 13.9487 70.8911C14.0946 70.8753 14.3114 70.832 14.6268 70.7531L14.6406 70.7453V69.2281H13.8777V69.2261Z" fill="white"/>
<path d="M19.0584 67.3638L18.4236 69.7637L17.8815 67.3618H17.2468L16.6692 69.7775L16.066 67.3618H15.3425L16.2079 70.8337H16.9274L17.4695 68.5776L17.9742 70.8337L18.6917 70.8356L19.6005 67.3638H19.0584Z" fill="white"/>
<path d="M21.0985 70.2957L21.1005 69.3066H22.3168V68.7844H21.1005V67.882H22.5849V67.3657L20.3396 67.3638V70.8356L22.6894 70.8376V70.2957H21.0985Z" fill="white"/>
<path d="M24.2487 67.3657H23.4839V70.8376H24.2487V67.3657Z" fill="white"/>
<path d="M29.7171 70.1661C29.3781 70.3375 29.041 70.4222 28.7137 70.4222C28.3254 70.4222 28.0277 70.2981 27.8405 70.0636C27.6453 69.8291 27.5408 69.5198 27.5408 69.1316C27.5408 68.7434 27.6295 68.4558 27.805 68.2075C27.9725 67.9632 28.2505 67.8371 28.6349 67.8371C28.7413 67.8371 28.8399 67.8449 28.9424 67.8587C29.0351 67.8706 29.1356 67.8962 29.2617 67.9198C29.3682 67.9513 29.5082 67.9908 29.6915 68.0538L29.7211 68.0696V67.4528H29.7033C29.3367 67.3602 28.9582 67.3208 28.5955 67.3188C27.9587 67.3188 27.4817 67.4844 27.188 67.8272C26.8804 68.1701 26.7405 68.6075 26.7405 69.1395C26.7405 69.6715 26.8804 70.103 27.186 70.4459C27.4935 70.7907 27.943 70.9601 28.5442 70.9601C28.6723 70.9601 28.8241 70.9503 28.9661 70.9385C29.11 70.9188 29.2342 70.8951 29.3465 70.8794C29.4608 70.8518 29.587 70.8045 29.7388 70.7395L29.7565 70.7355V70.1503L29.7191 70.1641L29.7171 70.1661Z" fill="white"/>
<path d="M33.5809 68.1937C33.4409 67.9099 33.2418 67.6932 32.9698 67.5434C32.7017 67.3976 32.3803 67.3228 32.0334 67.3228C31.6726 67.3228 31.3651 67.3957 31.0931 67.5415C30.8151 67.6912 30.6121 67.908 30.4721 68.1897C30.3341 68.4676 30.2632 68.7868 30.2632 69.1414C30.2632 69.4961 30.3322 69.8094 30.4721 70.0912C30.6121 70.3729 30.8151 70.5838 31.0892 70.7375C31.3533 70.8852 31.6746 70.9601 32.0354 70.9621C32.3941 70.9621 32.7036 70.8872 32.9717 70.7394C33.2438 70.5857 33.4409 70.3749 33.5828 70.0931C33.7188 69.8094 33.7937 69.4961 33.7937 69.1434C33.7937 68.7907 33.7208 68.4695 33.5828 68.1917L33.5809 68.1937ZM32.0334 70.4419C31.7062 70.4419 31.4676 70.3158 31.3139 70.0518C31.1542 69.7818 31.0813 69.4862 31.0813 69.1414C31.0813 68.7966 31.1542 68.4932 31.3158 68.2291C31.4716 67.971 31.716 67.841 32.0354 67.841C32.3527 67.841 32.5854 67.973 32.749 68.2291C32.9008 68.4932 32.9855 68.7986 32.9855 69.1414C32.9855 69.4843 32.9008 69.7838 32.747 70.0518C32.5873 70.3158 32.3508 70.4399 32.0334 70.4399V70.4419Z" fill="white"/>
<path d="M36.6461 67.4092V69.683L35.1085 67.4092H34.4382V70.883H35.0631V68.6013L36.5948 70.883H37.2729L37.2749 67.4092H36.6461Z" fill="white"/>
<path d="M40.2713 69.3877C40.1668 69.2183 39.9165 69.039 39.5518 68.8203L39.2955 68.6843C39.0806 68.5661 38.9446 68.4676 38.8934 68.4065C38.848 68.3415 38.8263 68.2745 38.8263 68.1976C38.8263 68.1011 38.8658 68.0203 38.9446 67.9474C39.0294 67.8804 39.1555 67.841 39.327 67.841C39.5281 67.841 39.808 67.906 40.1668 68.038L40.1944 68.0498V67.441L40.1767 67.437C39.8218 67.3622 39.5124 67.3228 39.2324 67.3228C38.8658 67.3228 38.574 67.4114 38.371 67.6045C38.166 67.7897 38.0654 68.0183 38.0654 68.2823C38.0654 68.4912 38.1265 68.6784 38.2448 68.84C38.369 69.0035 38.5996 69.1749 38.9249 69.3542L39.1575 69.4823C39.3763 69.6045 39.5005 69.703 39.5616 69.772C39.6011 69.8409 39.6346 69.9256 39.6346 70.0183C39.6346 70.1345 39.5833 70.237 39.4867 70.3178C39.402 70.4005 39.2581 70.4419 39.0649 70.4419C38.9545 70.4419 38.8323 70.434 38.6982 70.4084C38.574 70.3887 38.371 70.3197 38.1009 70.2074L38.0733 70.1956V70.8439L38.0911 70.8478C38.4617 70.9246 38.7869 70.964 39.0629 70.964C39.5261 70.964 39.881 70.8655 40.1037 70.6606C40.3186 70.4557 40.431 70.2074 40.431 69.9217C40.431 69.7227 40.3758 69.5394 40.2752 69.3818L40.2713 69.3877Z" fill="white"/>
<path d="M40.7346 67.4111V67.9313H41.9627L41.9608 70.8849L42.7217 70.8869L42.7236 67.9333H43.9478V67.4131L40.7346 67.4111Z" fill="white"/>
<path d="M46.2996 69.2731C46.4967 69.1805 46.6544 69.0465 46.7688 68.8692C46.889 68.684 46.9481 68.4909 46.9481 68.2879C46.9481 68.1145 46.9048 67.9609 46.824 67.819C46.7392 67.687 46.6268 67.5825 46.4888 67.5155C46.3469 67.4446 46.1439 67.4131 45.8797 67.4131H44.5728V70.8869H45.2982V69.4859H45.6451L46.4967 70.8869H47.4291L46.3016 69.2731H46.2996ZM45.2962 67.9313H45.517C45.793 67.9313 45.9783 67.9707 46.0571 68.0476C46.1419 68.1283 46.1813 68.2269 46.1813 68.3628C46.1813 68.5205 46.1281 68.6603 46.0157 68.7805C45.9152 68.9007 45.7161 68.9638 45.4342 68.9638H45.2962V67.9313Z" fill="white"/>
<path d="M50.0134 67.415V69.5864C50.0134 69.9293 49.9484 70.1598 49.8321 70.2721C49.7197 70.3943 49.5738 70.4495 49.3767 70.4495C49.1796 70.4495 49.014 70.3943 48.8977 70.2721C48.7696 70.1618 48.7025 69.9155 48.7104 69.5372V67.415H47.9456V69.5332C47.9456 69.9312 48.0027 70.2288 48.1249 70.416C48.2452 70.5972 48.4147 70.743 48.6138 70.8317C48.8267 70.9223 49.0712 70.9736 49.3629 70.9736C49.6547 70.9736 49.8952 70.9223 50.0824 70.8238C50.2796 70.7233 50.4215 70.5854 50.526 70.4081C50.6265 70.2288 50.6817 69.9431 50.6817 69.545V67.417H50.0115L50.0134 67.415Z" fill="white"/>
<path d="M54.3443 70.1777C54.0092 70.3472 53.6741 70.4339 53.3508 70.4339C52.9486 70.4339 52.6667 70.3098 52.4696 70.0753C52.2725 69.8408 52.1759 69.5315 52.1759 69.1453C52.1759 68.7591 52.2626 68.4694 52.44 68.2211C52.6135 67.9768 52.8895 67.8507 53.2739 67.8527C53.3725 67.8527 53.471 67.8586 53.5794 67.8743C53.676 67.8862 53.7805 67.9118 53.8909 67.9354C53.9993 67.967 54.1432 68.0064 54.3246 68.0694L54.3542 68.0852V67.4684H54.3384C53.9697 67.3758 53.5913 67.3364 53.2187 67.3364C52.582 67.3364 52.1148 67.5 51.8211 67.8428C51.5155 68.1857 51.3696 68.6231 51.3696 69.1531C51.3696 69.6832 51.5135 70.1167 51.8191 70.4595C52.1207 70.8043 52.5741 70.9738 53.1674 70.9738C53.3074 70.9738 53.4552 70.9639 53.5932 70.9501C53.7293 70.9304 53.8574 70.9068 53.9717 70.891C54.0801 70.8634 54.2162 70.8162 54.3699 70.7511L54.3837 70.7472V70.162L54.3423 70.1758L54.3443 70.1777Z" fill="white"/>
<path d="M54.9514 67.417V67.9372H56.1756L56.1736 70.8928H56.9424V67.9391H58.1685V67.419L54.9514 67.417Z" fill="white"/>
<path d="M59.7514 67.4331H58.9885V70.9069H59.7514V67.4331Z" fill="white"/>
<path d="M64.0174 68.223C63.8775 67.9412 63.6705 67.7245 63.4004 67.5728C63.1362 67.425 62.8208 67.3462 62.466 67.3462C62.1072 67.3462 61.7879 67.423 61.5257 67.5708C61.2517 67.7206 61.0526 67.9373 60.9087 68.2191C60.7707 68.4969 60.6958 68.8141 60.6958 69.1708C60.6958 69.5274 60.7687 69.8407 60.9067 70.1245C61.0506 70.3983 61.2497 70.6171 61.5237 70.7707C61.7859 70.9205 62.1053 70.9934 62.464 70.9954C62.8228 70.9954 63.1343 70.9225 63.3965 70.7727C63.6685 70.621 63.8735 70.4023 64.0135 70.1284C64.1534 69.8447 64.2283 69.5294 64.2283 69.1747C64.2283 68.82 64.1554 68.5008 64.0154 68.223H64.0174ZM62.466 70.4732C62.1388 70.4732 61.9062 70.3432 61.7485 70.0791C61.5908 69.819 61.506 69.5136 61.506 69.1747C61.506 68.8358 61.5908 68.5265 61.7504 68.2624C61.9081 68.0004 62.1408 67.8743 62.468 67.8743C62.7893 67.8743 63.0239 68.0004 63.1757 68.2624C63.3393 68.5265 63.4162 68.826 63.4162 69.1747C63.4162 69.5235 63.3432 69.819 63.1796 70.0791C63.0239 70.3432 62.7893 70.4732 62.468 70.4732H62.466Z" fill="white"/>
<path d="M67.2679 67.437L67.266 69.7128L65.7244 67.4351H65.0562V70.9089H65.683L65.685 68.6311L67.2167 70.9108H67.8909L67.8928 67.437H67.2679Z" fill="white"/>
<path d="M18.0845 56.6904L18.1358 56.6214C18.7902 55.4766 19.0386 53.6421 19.0445 52.056V51.9712L17.7376 51.7979V51.9043C17.7238 53.3998 17.4655 55.1239 16.886 56.0342L16.8347 56.1248L16.9353 56.1682L18.0845 56.6923V56.6904Z" fill="white"/>
<path d="M16.1251 62.4615C14.1026 61.7817 11.8908 60.499 10.3965 59.0665H14.3785L14.3805 52.4854H8.99693V51.4135H15.7565V49.7406H8.99693V48.1919H7.13407V49.7367H0.532246V51.4096H7.13407V52.4815H2.00282L2.00085 59.0626H5.76403C4.28557 60.4951 2.14278 61.7758 0.145875 62.4733L0 62.5246L0.114334 62.627C0.46128 62.9403 0.952129 63.5472 1.20051 63.9472L1.24191 64.0122L1.31682 63.9827C3.35906 63.1413 5.52353 61.697 7.13013 59.9985V64.3334H8.99102V59.9355C10.6232 61.6537 12.8311 63.1748 14.9088 64.0221L14.9896 64.0536L15.0271 63.9807C15.2735 63.5689 15.786 62.9265 16.1527 62.6152L16.2848 62.5088L16.1271 62.4576L16.1251 62.4615ZM7.13013 57.6439H3.75923V56.438H7.13013V57.6439ZM7.13013 55.0883H3.76121V53.8982H7.1321V55.0883H7.13013ZM12.5728 53.9021V55.0903H8.99299V53.9001H12.5709L12.5728 53.9021ZM8.99102 57.6459V56.442H12.5709V57.6459H8.99102Z" fill="white"/>
<path d="M50.3545 62.0676C49.3097 62.103 45.7023 62.103 44.8625 62.101C42.1737 62.0833 39.9521 61.7641 38.3415 60.3848C38.9704 58.8519 39.4021 56.9544 39.6426 54.7239C39.6978 54.651 39.7451 54.5406 39.7668 54.4342L39.7806 54.3534L38.7634 54.0539H38.7377L38.4775 54.1052H37.1272C37.8487 52.5584 38.5603 51.0018 39.0157 49.9634C39.1044 49.8747 39.1557 49.7565 39.1931 49.6895L39.2542 49.5949L38.1582 49.193L37.8507 49.2442H34.3162V50.8343H36.8098C36.1495 52.3239 35.2348 54.251 34.4561 55.7642L34.4029 55.8647L36.0391 56.3061L36.3407 55.6933H37.8369C37.6595 56.9051 37.417 57.9711 37.1055 58.8972C36.7389 58.3139 36.4294 57.6125 36.183 56.777L36.1514 56.6864L34.7084 57.2046L34.738 57.2854C35.1776 58.6607 35.7039 59.7543 36.3367 60.6233C35.771 61.6498 35.0475 62.4518 34.1939 63.0252L34.0776 63.104L34.1999 63.1769C34.5369 63.3857 35.148 63.9473 35.3925 64.2567L35.4457 64.3276L35.5226 64.2724C36.3229 63.6912 37.0089 62.9168 37.5767 61.9375C39.4238 63.4429 41.8386 63.8035 44.8152 63.8054H49.8006L49.8144 63.7404C49.9129 63.2912 50.185 62.5661 50.4314 62.2134L50.5319 62.0597L50.3486 62.0656L50.3545 62.0676ZM43.5772 51.8037H39.0177V53.2599H43.5772V54.1091H40.2655V55.5317H43.5772V56.3948H40.0033V57.78H43.5792V58.6469H39.2641V60.1366H43.5792V61.7799H45.3258V60.1385H49.9307V58.6489H45.3277V57.7819H49.1796V56.3967H45.3277V55.5278L48.8839 55.5357V53.2658H50.2934V51.8097H48.8839V49.5752H45.3277V48.1802H43.5812V49.5693H40.3463V50.9919H43.5792V51.8077L43.5772 51.8037ZM45.3238 50.99H47.1177V51.8057H45.3238V50.99ZM45.3238 53.2618H47.1177V54.1091H45.3238V53.2618Z" fill="white"/>
<path d="M32.7686 60.986H28.9148V59.9259H32.2817V58.5486H28.9148V57.6876H31.7633V53.8965L23.957 53.8926V57.6836H27.044V58.5447H23.271V59.922H27.044V60.9821H25.1536L25.4295 60.324L23.545 60.1151L22.8215 62.4638H27.044V64.3712H28.9128V62.4678H32.7667V60.984L32.7686 60.986ZM25.5971 55.2147H30.068V56.3497H25.5971V55.2147Z" fill="white"/>
<path d="M33.0309 53.3012V51.8687H31.4243V49.4116H27.8602C27.9056 49.2185 27.945 49.0294 27.9746 48.8422L28.0593 48.3338C27.8385 48.3062 27.3989 48.2688 26.4646 48.1939L26.3778 48.1841L26.364 48.2668C26.3069 48.6314 26.2241 49.0136 26.1452 49.4097H23.8763V50.7771H25.8475L25.5992 51.8668H23.6713L22.0252 51.1338L21.9957 51.2343C21.7985 51.9732 21.4417 52.9564 21.1066 53.7938L21.1165 48.2176H19.5099L19.5079 54.2076C19.5079 57.3169 19.23 60.5582 16.89 63.0153L16.821 63.0961L16.9098 63.1532C17.233 63.364 17.7239 63.902 17.9407 64.229L17.9999 64.3256L18.0787 64.2448C19.3719 62.901 20.121 61.3621 20.5507 59.7346C21.0356 60.4656 21.5324 61.2557 21.8123 61.7739L21.8636 61.8803L23.1173 60.6508L23.0661 60.5917C22.7487 60.1543 21.4674 58.4045 20.9193 57.7405C21.0356 56.846 21.0849 55.9238 21.1027 55.0155L21.7808 55.3603L21.8242 55.2854C22.2145 54.5879 22.7014 53.5849 23.0542 52.7239V53.2973L33.0289 53.3012H33.0309ZM27.5606 50.7771H29.7546V51.8668H27.3004C27.3891 51.5259 27.4739 51.1515 27.5606 50.7771Z" fill="white"/>
<path d="M58.3795 51.0648L51.6042 51.0609V52.5327L58.3795 52.5367V51.0648ZM57.7389 48.7929H52.4874V50.2294H57.7389V48.7929ZM57.7724 55.7169H52.4204V57.1533H57.7724V55.7169ZM67.7431 62.6862C66.3672 62.3414 65.1391 61.7936 64.0923 61.0705C65.2948 59.837 66.2193 58.2627 66.7496 56.3376C66.8147 56.2745 66.8856 56.2036 66.929 56.1051L66.9605 56.0223L65.8152 55.5534L65.7896 55.5573L65.5156 55.6046L58.9433 55.6007C60.749 54.3593 61.1255 52.4579 61.1255 50.9013V50.3495H63.4339V52.9032C63.4339 53.6224 63.5108 54.0992 63.7789 54.4086C64.0391 54.7199 64.4649 54.8204 65.0622 54.8204H66.1819C66.6984 54.8263 67.0926 54.6765 67.3449 54.2529C67.5973 53.8352 67.7254 53.1751 67.7826 52.1446V52.0855H66.2588C66.2489 52.5505 66.2193 52.852 66.1819 53.0313C66.1089 53.2776 66.1011 53.2598 66.0064 53.2677H65.3362C65.21 53.2677 65.1844 53.248 65.1686 53.2244C65.1529 53.1968 65.1391 53.0825 65.1391 52.8815V48.7437L59.4184 48.7417V50.8816C59.4145 52.0224 59.1996 53.3012 57.7704 54.3199V53.4175H52.4184V54.8539H57.7704V54.6943C58.0977 54.9268 58.5786 55.3504 58.76 55.6026H58.4091V57.242H60.1695L59.1562 57.5691L59.1976 57.6637C59.7594 58.9425 60.4888 60.0754 61.3759 61.0311C60.3153 61.766 59.0715 62.3079 57.7665 62.635V58.0558L52.377 58.0538V64.0458H53.9323V63.3207H57.7645V62.9837C58.0326 63.3364 58.3421 63.8606 58.4683 64.1877L58.4958 64.2684L58.5727 64.2468C60.0985 63.7975 61.5001 63.1394 62.6966 62.2567C63.8321 63.1276 65.145 63.8113 66.6392 64.2507L66.7082 64.2665L66.7417 64.2054C66.9822 63.7896 67.4317 63.1473 67.7747 62.8419L67.9028 62.7276L67.7372 62.6823L67.7431 62.6862ZM56.1796 61.835H53.9382V59.5296H56.1796V61.835ZM60.8436 57.2459H64.5674C64.112 58.2883 63.4911 59.175 62.7124 59.9395C61.9318 59.1631 61.2911 58.2449 60.8436 57.2459Z" fill="white"/>
<path d="M55.7893 21.8064C55.7834 33.8456 46.0058 43.5971 33.9633 43.5911C21.9207 43.5852 12.155 33.8278 12.1609 21.7867C12.1668 9.7456 21.9404 -0.00590851 33.983 2.68603e-06C46.0255 0.00591388 55.7952 9.76333 55.7893 21.8064Z" fill="white"/>
<path d="M33.9811 1.96045C23.0642 1.99986 14.221 10.8627 14.217 21.7866C14.2151 28.2574 17.31 34.0031 22.1002 37.6247C22.1002 37.6207 33.9811 1.96045 33.9811 1.96045Z" fill="#007C91"/>
<path d="M33.9771 10.9671L33.981 1.96045C33.981 1.96045 22.1001 37.6207 22.1001 37.6247C23.2237 38.4759 24.1285 38.9902 24.7081 39.2975L33.9771 10.9671Z" fill="url(#paint0_linear_315_216)"/>
<path d="M33.9812 1.96045C44.906 2.00971 53.7374 10.8804 53.7334 21.8024C53.7315 28.2732 50.6326 34.0149 45.8404 37.6345C45.8404 37.6306 33.9812 1.96045 33.9812 1.96045Z" fill="#FAC324"/>
<path d="M33.9771 10.9671L33.981 1.96045C33.981 1.96045 45.8402 37.6306 45.8402 37.6345C44.7127 38.4838 43.8078 38.9961 43.2263 39.3035L33.9771 10.9671Z" fill="url(#paint1_linear_315_216)"/>
<path d="M43.2265 39.3036L33.9772 10.9673L24.7083 39.2957C27.468 40.7735 30.6241 41.6168 33.9654 41.6326C37.3126 41.6188 40.4667 40.7775 43.2284 39.3036H43.2265Z" fill="#989B9C"/>
</g>
<defs>
<linearGradient id="paint0_linear_315_216" x1="21.6709" y1="20.6237" x2="33.9855" y2="20.628" gradientUnits="userSpaceOnUse">
<stop offset="0.39" stop-color="white"/>
<stop offset="1" stop-color="#474747"/>
</linearGradient>
<linearGradient id="paint1_linear_315_216" x1="33.9736" y1="20.628" x2="45.8467" y2="20.6321" gradientUnits="userSpaceOnUse">
<stop offset="0.39" stop-color="white"/>
<stop offset="1" stop-color="#474747"/>
</linearGradient>
<clipPath id="clip0_315_216">
<rect width="67.9087" height="70.9955" fill="white"/>
</clipPath>
</defs>
</svg>
