<svg width="542" height="449" viewBox="0 0 542 449" fill="none" xmlns="http://www.w3.org/2000/svg">
<g opacity="0.08" clip-path="url(#clip0_37_273)">
<path d="M535.76 407.719C530.761 410.838 527.629 402.721 522.63 406.466C508.259 403.347 491.382 400.842 476.385 398.349C471.374 395.23 464.508 395.845 458.882 393.978C451.39 392.725 444.511 392.725 437.633 389.606C435.139 388.98 432.646 390.859 430.767 388.354C425.768 386.487 419.516 385.861 415.143 385.235C411.397 384.609 407.65 382.742 403.892 381.489C401.398 381.489 398.266 379.611 395.773 378.37C391.4 378.997 390.147 374.625 385.775 375.866C383.281 372.746 378.27 375.866 375.776 372.12C368.272 372.746 363.899 367.123 356.406 368.375C353.901 365.256 350.154 367.123 347.661 365.256C340.156 364.003 332.663 362.137 325.785 360.884C322.665 360.884 318.907 359.632 315.787 359.632C314.534 359.632 312.667 358.379 312.667 356.513C322.039 346.517 328.291 335.269 337.036 325.274C337.663 322.781 337.663 320.276 340.783 319.65C340.156 316.531 342.662 312.774 340.156 309.655C334.531 304.657 330.158 297.781 323.28 294.035C322.653 299.659 327.652 302.152 326.4 307.162C319.522 324.66 310.15 341.531 297.02 355.898C291.394 359.017 284.516 357.151 278.89 359.017C274.518 361.51 268.266 359.644 265.134 363.389C262.014 364.015 257.015 365.268 256.388 368.387C261.388 369.639 266.387 367.134 270.759 367.134C273.879 367.761 277.638 369.013 280.131 372.132C278.879 378.997 273.253 387.751 265.134 389.63C261.388 397.132 253.883 400.878 250.137 407.754C246.39 410.247 244.511 415.257 239.512 415.257C238.259 419.628 232.007 419.628 230.755 423.373C227.008 423.373 223.876 427.119 220.13 427.745C217.636 427.745 214.505 427.745 213.252 424.626C210.132 420.254 213.878 415.257 214.505 410.873C215.757 403.997 220.13 398.999 222.624 392.749H221.997C218.877 397.121 215.119 400.866 213.252 405.875C209.505 412.752 207.626 420.242 207 428.985C207.626 429.612 208.253 431.49 207.626 432.105C207 433.983 209.494 435.862 210.746 437.102C213.866 437.729 217.625 438.981 221.997 437.729C226.37 437.729 230.743 434.609 234.501 434.609C237.621 430.864 242.006 428.985 246.378 427.107C249.498 422.735 253.257 418.99 257.629 415.859C260.749 415.233 261.376 410.235 264.508 412.114C265.134 409.609 267.628 409.609 268.88 407.742C274.506 401.492 280.131 395.242 286.383 388.992C288.262 387.74 290.13 383.994 293.261 383.368C293.261 378.37 298.887 377.118 301.392 375.251C307.018 376.504 311.391 379.623 315.763 380.875C317.642 382.754 320.762 381.501 322.015 384.62C329.52 388.366 337.639 394.616 345.143 398.987C347.649 401.492 350.143 403.359 353.889 404.611C358.888 409.609 365.766 410.861 372.018 414.607C375.138 418.978 380.764 420.857 384.522 425.228C392.653 427.733 400.146 434.598 407.024 438.981C407.65 440.859 410.77 438.981 410.77 441.474C420.154 442.1 427.02 450.843 436.392 448.35C440.765 450.229 445.149 447.724 448.896 445.845C450.775 441.474 455.148 435.224 460.147 432.731C463.905 432.731 465.772 428.974 470.145 430.226C475.132 427.733 480.77 428.974 485.769 427.107C487.636 426.481 490.142 427.733 491.394 425.855C498.899 426.481 504.524 420.857 512.017 422.735C519.522 419.616 528.894 417.738 535.772 412.74C537.639 411.488 541.397 411.488 542.024 408.995C540.145 408.995 537.639 408.995 535.772 407.742L535.76 407.719Z" fill="white"/>
<path d="M255.124 369.604C255.75 368.351 255.124 368.351 254.497 368.351C252.618 369.604 250.751 370.23 248.246 370.23C248.246 370.856 246.993 372.723 247.619 372.108C250.113 371.482 253.871 370.23 255.124 369.616V369.604Z" fill="white"/>
<path d="M243.873 373.349H243.247V373.975H243.873V373.349Z" fill="white"/>
<path d="M236.049 378.252C236.841 377.957 237.834 377.957 238.259 377.106C236.983 376.255 236.569 377.413 236.049 378.252Z" fill="white"/>
<path d="M236.049 378.252C235.671 378.394 235.328 378.583 235.127 378.973C235.529 378.973 235.801 378.642 236.049 378.252Z" fill="white"/>
<path d="M233.875 379.599V380.225L234.501 379.599H233.875Z" fill="white"/>
<path d="M228.875 385.849C231.369 385.223 231.996 382.73 233.248 380.852C229.502 383.345 225.117 388.342 223.25 391.473C225.129 389.595 227.623 388.354 228.875 385.849Z" fill="white"/>
</g>
<g opacity="0.08" clip-path="url(#clip1_37_273)">
<path d="M283.13 293.13C284.32 287.78 280.76 283.62 278.97 279.45C280.15 278.27 278.37 277.08 277.18 275.89C278.37 272.92 273.62 272.92 274.81 269.94C273.62 268.76 273.62 266.37 271.84 265.18C269.46 262.81 269.46 259.83 267.08 256.86C267.08 253.29 262.92 253.88 263.51 250.32C261.14 252.1 260.54 255.08 258.16 256.27C256.37 255.67 254 253.89 255.19 251.51C253.4 250.32 252.81 249.13 254 247.35C251.03 244.38 251.62 239.62 248.65 236.65C250.43 234.27 246.28 233.68 247.46 231.3C244.49 228.33 246.28 223.57 243.9 220C249.25 214.05 254.6 207.51 258.76 200.98C262.92 199.19 262.33 193.25 266.49 190.87C267.09 189.68 265.9 187.3 267.68 186.11C267.68 183.14 269.46 178.38 267.09 175.41C266.49 170.65 261.74 168.87 261.74 164.11C259.36 162.92 256.98 161.14 255.2 159.35C250.44 156.97 249.85 162.32 246.28 163.51C245.09 164.7 246.28 166.48 246.28 167.67C248.06 167.67 249.25 168.86 250.44 168.26C253.41 169.45 254.01 173.02 254.01 175.39C253.41 177.77 252.82 180.15 251.63 181.93C249.85 187.28 246.87 191.44 243.31 195.6C242.12 196.79 241.52 199.76 239.15 199.76C234.39 195.6 236.18 189.06 233.2 184.9C231.41 182.52 233.2 180.14 231.41 177.76C232.6 173.01 226.65 169.44 228.44 163.49C226.66 161.11 227.85 158.73 226.66 155.76C227.25 154.57 223.69 153.38 226.06 152.19C226.06 151 226.06 149.22 225.46 148.62C224.86 144.46 221.3 142.08 222.49 136.73C219.52 134.35 222.49 129.6 220.11 127.22C223.68 124.84 226.65 119.49 227.25 115.92C227.84 111.76 224.87 112.35 222.49 110.57C220.71 109.97 218.33 109.38 216.54 107.6C215.95 103.44 213.57 99.87 214.16 95.11C211.78 93.33 214.76 90.35 211.19 88.57C211.19 83.22 209.41 79.06 208.81 74.3C209.41 72.52 206.43 70.73 208.81 69.54C209.41 67.75 207.62 66.57 207.02 65.38C207.62 65.38 207.62 64.79 208.21 64.19C207.02 61.22 207.61 57.65 205.83 54.68C207.02 50.52 205.83 45.76 204.64 41.6C207.61 39.82 201.67 38.03 205.83 36.25C204.64 30.9 207.02 27.93 206.43 23.17C207.62 20.2 205.83 17.22 207.02 14.85C207.02 12.47 206.43 9.49999 204.05 8.30999C199.89 2.95999 193.94 2.35999 188 -0.0100098C184.43 1.77999 187.4 5.93999 188.6 8.30999C192.17 10.69 193.36 15.45 195.14 19.01C193.95 20.79 196.33 21.98 195.74 24.36C196.34 26.74 196.34 29.12 196.93 31.5C196.33 36.85 199.9 40.42 198.71 45.77C200.5 47.55 198.11 50.53 199.9 51.72C199.3 55.29 202.87 58.26 201.09 61.83C202.88 65.99 202.28 71.34 203.47 76.1C204.66 87.99 208.23 99.88 208.82 111.18C205.25 112.96 200.5 114.75 196.93 117.72C193.36 123.07 189.2 127.23 184.44 131.39C181.47 135.55 177.3 138.53 174.33 142.69C168.38 146.26 165.41 152.2 158.87 155.77C154.71 164.09 146.38 168.85 140.44 174.79C137.47 175.39 136.28 178.36 133.9 179.55C132.12 179.55 132.71 183.12 130.33 181.93C129.14 182.53 127.95 180.74 127.95 179.55C130.92 173.01 135.68 167.06 138.65 160.52C142.22 158.14 142.81 153.39 146.98 152.2C151.74 146.25 155.9 138.53 161.25 132.58C164.22 130.2 165.41 125.44 168.98 123.07L174.33 115.93C175.52 115.93 175.52 114.74 176.12 113.55C176.72 112.95 177.31 111.17 179.09 111.17C180.87 105.82 185.63 105.82 188.6 101.66C189.19 99.88 190.98 98.09 189.79 96.9C189.79 95.71 189.19 93.93 190.39 93.93C191.58 94.52 190.99 95.71 191.58 96.9C191.58 95.71 192.17 95.71 192.77 95.11C192.18 93.33 194.56 90.35 192.18 90.35C192.18 87.97 188.61 87.97 188.02 86.78C185.64 87.97 182.07 86.78 180.29 89.75C176.13 89.75 174.94 95.1 170.78 96.29C170.18 99.86 164.83 98.07 163.64 102.24C159.48 102.84 158.29 107.59 154.13 108.78C148.18 107.59 155.32 103.43 154.73 100.45C157.11 99.26 156.51 96.29 158.89 95.1C160.08 89.75 165.43 86.78 167.21 81.43C167.21 82.03 167.81 83.21 168.4 82.62C170.78 75.49 180.29 72.51 180.89 64.78C179.7 61.21 175.54 63 173.76 63C169.6 68.35 163.06 68.95 160.08 73.7C157.11 74.89 155.32 77.86 153.54 79.65C150.57 80.84 148.19 82.62 145.22 84.41C145.22 87.38 141.65 85.6 141.06 88.57C137.49 87.38 133.92 90.95 131.55 93.33H132.15C135.12 96.3 139.28 94.52 142.85 94.52C144.04 93.93 145.23 93.33 145.82 91.55C149.39 90.96 151.17 86.2 155.33 86.2C161.28 89.77 152.36 92.74 152.95 96.9C148.19 98.68 150.57 104.03 147 106.41C144.62 111.17 137.49 115.92 139.27 121.27C141.65 123.65 144.03 121.27 145.81 120.68C152.35 117.11 154.73 109.38 161.27 106.41C163.05 106.41 163.05 103.44 165.43 104.03C168.4 102.25 173.16 99.27 172.57 96.3C173.17 95.7 173.17 95.11 173.76 95.7C175.54 98.67 176.73 94.51 179.11 94.51C186.24 99.27 176.14 103.43 175.54 108.19C170.19 111.76 168.4 118.89 164.24 122.46C157.1 130.78 151.16 139.7 145.21 149.22C142.83 152.19 141.05 153.38 139.26 156.36C137.48 162.9 130.94 164.09 127.96 170.03C126.18 175.38 122.01 178.35 119.64 183.11C118.45 189.06 120.83 193.22 124.4 196.78C133.91 196.18 139.26 186.08 147 182.51C148.78 184.29 146.4 186.67 145.81 189.05C144.03 191.43 147 193.81 144.62 195.59C143.43 201.54 142.24 208.08 139.86 214.02C139.86 216.4 138.08 218.18 139.86 220.56C137.48 225.32 143.43 226.51 144.02 230.07C147.58 231.85 151.15 233.64 154.72 232.45C160.67 229.48 159.48 221.75 164.83 218.78C167.8 221.16 164.83 223.54 166.02 225.91C165.42 231.26 167.81 234.83 171.37 238.4C174.94 239 178.51 243.75 182.07 240.78C189.2 242.57 186.83 234.24 190.99 231.27C193.96 221.16 197.53 211.65 200.5 202.14C202.28 198.57 199.9 195.01 202.88 192.63C202.88 191.44 202.28 190.85 201.69 190.25C202.88 187.28 201.69 184.9 202.29 181.93C199.32 177.77 194.56 174.79 189.8 173.61C187.42 174.21 184.45 171.82 183.85 175.39C179.69 173.61 180.28 177.77 178.5 179.55C174.93 181.93 172.55 186.09 168.99 189.06C166.61 189.65 166.61 186.09 164.83 185.49C164.83 190.25 164.83 196.79 160.07 199.16C159.47 203.32 154.12 203.32 152.34 207.48C151.15 208.67 149.96 207.48 148.77 206.29C149.96 202.13 146.99 197.97 149.96 194.4C151.15 188.45 154.12 183.1 155.31 177.16C163.04 168.83 169.58 158.13 178.5 151C180.28 148.62 184.45 147.43 185.64 144.46C188.02 142.67 188.02 137.92 191.59 138.51C195.16 133.75 200.51 132.56 204.67 129.59C207.64 129.59 211.81 126.62 213.59 130.18C214.78 134.34 214.78 139.69 216.56 143.86C216.56 148.02 218.94 150.99 218.35 155.16C221.91 158.73 218.94 164.67 221.91 168.83C221.91 174.78 224.29 180.13 224.29 185.48C226.67 193.21 227.86 200.34 229.64 208.67C232.61 215.81 222.5 218.18 221.32 224.13C216.56 227.1 213.59 230.67 208.24 233.05C208.84 234.24 207.64 234.24 208.84 234.83C216.57 233.64 224.3 232.45 231.43 229.48C233.81 231.26 235.59 234.83 236.19 237.8C240.95 243.75 237.97 251.48 243.33 257.42C242.14 262.18 245.7 265.75 246.3 270.5C246.89 277.04 250.46 282.39 249.87 288.93C252.84 290.71 251.65 294.88 255.82 295.47C259.98 299.63 264.15 302.6 270.09 304.39C271.27 307.96 275.44 305.57 278.41 306.17C279.01 304.99 280.19 304.39 281.38 303.8C285.54 301.43 282.57 296.07 283.16 293.1L283.13 293.13ZM168.97 210.48C170.16 209.89 168.97 208.1 170.16 206.91C175.51 201.56 174.32 191.45 183.24 189.07C186.81 194.42 184.43 201.55 184.43 206.91C181.46 213.45 183.83 221.77 177.89 226.53C172.54 225.34 170.76 220.58 169.57 215.83C168.38 214.64 167.79 212.26 168.97 210.48Z" fill="white"/>
<path d="M117.25 85.0299C117.25 81.4599 113.09 82.6499 111.9 79.0799C111.31 78.4799 110.12 79.0799 109.52 79.6699C108.33 76.6999 104.17 78.4799 101.79 76.6999C100.6 77.8899 98.82 77.8899 97.03 77.2899C95.84 76.6999 94.65 74.9099 95.25 73.7199C96.44 71.9399 96.44 68.9599 98.82 68.9599C100.6 64.1999 105.95 60.6399 108.33 55.8799C109.52 56.4799 110.11 55.2899 111.3 54.6899C112.49 50.5299 116.65 50.5299 117.84 46.3699C124.38 42.7999 130.33 38.6399 135.09 32.6899C133.9 30.9099 139.25 27.3399 134.49 26.1499C133.9 21.3899 129.73 21.9899 126.17 20.1999C122.6 20.1999 118.44 19.6099 114.87 18.4199C111.9 15.4499 109.52 20.7999 105.95 19.0099C102.98 20.1999 105.36 25.5499 101.79 24.9599C102.98 27.9299 98.82 27.3399 99.41 30.3099C93.46 33.8799 90.49 40.4199 83.36 43.3899C80.98 48.1399 75.04 46.3599 72.66 51.1199C69.09 51.7199 67.31 54.0899 64.33 56.4699C63.74 57.0699 61.36 55.8699 61.36 57.0699C55.41 55.8799 54.23 62.4199 49.47 62.4199C46.5 61.8299 45.31 65.3899 42.34 64.7999C35.2 68.3699 26.88 70.1499 18.56 72.5299C17.37 72.5299 14.99 73.1199 13.21 73.1199C10.83 72.5299 7.25999 74.3099 5.47999 70.7399C3.69999 72.5299 1.31999 72.5299 0.129994 75.4999C-0.470007 78.4699 1.31999 82.0399 3.69999 83.8199C4.29999 88.5799 9.04999 90.9599 10.83 94.5199C19.16 97.4899 28.08 102.85 36.99 98.0899C39.96 96.8999 42.34 95.1199 45.31 93.9299C47.69 92.7399 50.07 93.3299 52.44 92.1399C54.82 93.3299 56.01 89.7599 58.98 91.5399C60.17 91.5399 60.77 93.3299 61.36 94.5099C60.17 96.8899 60.17 99.8599 60.17 102.84C58.38 104.03 58.38 105.22 57.79 107C59.57 114.73 52.44 119.49 53.03 126.62C50.06 131.97 51.25 139.1 48.27 143.86C47.67 145.05 48.87 146.24 47.08 147.43C47.08 153.38 42.92 156.94 43.51 162.89C39.35 170.03 40.54 180.14 38.16 187.86C38.76 192.62 41.73 197.97 45.3 200.94C46.49 205.1 50.06 207.48 52.43 211.05C55.4 212.24 58.38 212.84 61.35 212.24C62.54 212.24 63.14 210.45 64.32 211.05C68.48 209.27 69.67 203.92 70.86 200.35C70.86 194.4 70.86 184.3 72.05 177.75C73.24 174.19 78 173 81.56 171.8C82.15 171.21 82.75 171.8 83.94 171.8L89.89 164.67C94.05 164.07 95.84 160.51 98.21 156.94L95.24 155.16C93.46 154.57 89.89 154.57 88.7 155.76C85.13 156.35 82.75 158.73 80.38 161.11C77.41 161.11 75.63 167.06 72.06 165.27C70.27 158.13 70.27 149.22 72.06 142.67C71.46 139.7 71.46 135.54 73.84 133.16C75.03 131.97 76.81 132.57 77.41 133.76C78.6 134.36 78.6 133.16 79.79 132.57V133.76C82.76 134.36 85.74 134.95 88.11 132.57C90.49 134.35 92.27 131.38 95.25 131.38C97.03 130.19 97.63 127.81 97.63 126.03C97.03 123.06 92.87 124.24 91.09 121.87C85.14 122.47 80.39 124.25 74.44 124.84C71.47 117.71 78.01 110.57 79.2 103.43C79.8 99.2699 83.96 96.8899 83.96 92.7299C86.34 89.7599 88.12 86.19 91.69 84.41C94.66 80.25 98.23 84.4099 101.2 84.9999C102.98 86.7799 103.58 89.1599 104.17 91.5399C102.39 94.5099 103.58 98.0799 103.58 101.65H102.98C104.17 104.03 101.79 107.6 102.39 110.57C104.77 114.14 101.2 117.11 103.58 120.68C101.8 124.84 103.58 131.98 102.98 137.33C102.98 142.08 101.2 149.22 103.58 155.17C100.61 157.55 102.98 161.12 103.58 163.49C100.61 171.22 105.96 180.73 97.04 186.09C92.28 193.82 85.15 202.14 78.02 209.28C72.07 216.41 65.53 223.55 57.8 230.09C54.83 231.87 52.45 228.9 49.47 230.09C49.47 231.87 47.69 234.85 49.47 237.82C50.07 240.2 53.04 240.79 54.82 241.98C60.77 242.57 63.74 239.6 67.9 236.03C70.87 234.84 72.66 231.27 74.44 228.89C77.41 228.29 76.82 225.92 78.01 224.13C80.98 221.75 82.17 217.59 85.14 214.62C91.68 209.27 91.68 200.95 98.82 196.19C101.2 197.38 100.01 200.35 101.79 200.95C99.41 206.9 100.6 214.03 100.6 219.97C99.41 223.54 98.82 227.7 100 230.67C98.81 233.05 97.62 236.02 98.81 238.4C97.62 244.35 98.81 249.7 97.02 255.64C95.83 262.78 87.51 254.46 85.13 259.81C89.89 265.16 91.08 271.7 96.43 275.27C99.4 279.43 104.16 275.27 107.73 277.65C112.49 277.65 112.49 271.7 114.86 268.73C114.86 265.16 116.05 259.81 113.08 256.84L114.86 256.24C114.27 254.46 116.05 252.08 114.27 250.89C113.67 236.62 114.27 222.35 114.27 209.27C115.46 203.32 113.67 195.59 115.46 189.65C112.49 183.7 116.05 177.17 114.27 171.22C113.67 167.06 113.08 164.08 114.86 160.52C114.27 152.2 114.86 143.28 116.65 134.95C114.86 129 117.84 121.87 117.24 115.33C119.02 112.36 117.24 107.6 118.43 104.03C119.62 98.0799 124.38 89.1699 117.24 85.0099L117.25 85.0299Z" fill="white"/>
<path d="M157.68 35.08C163.03 36.27 165.41 41.03 166 45.78C166.6 47.56 168.38 47.56 169.57 48.16C170.76 50.54 174.32 48.16 175.52 49.94C177.3 49.94 176.71 47.56 178.49 48.16C181.46 46.38 179.68 42.81 180.27 40.43C178.49 36.86 174.92 36.27 172.54 36.27C170.76 31.52 164.22 36.87 163.03 31.52C160.65 32.71 158.87 32.11 157.08 32.11C155.3 33.3 157.08 34.49 157.68 35.08Z" fill="white"/>
<path d="M245.08 80.86C245.67 83.83 249.24 88.59 245.67 90.97C247.45 91.56 250.43 92.16 252.81 90.37C255.19 90.37 256.97 89.78 259.35 88.58C259.35 87.39 259.35 85.01 260.54 83.82C259.35 80.85 258.76 77.28 255.78 75.5L250.43 71.93C245.67 72.53 242.7 70.15 239.73 71.93C240.33 74.31 242.11 76.09 243.3 77.88C243.89 78.47 243.3 79.66 245.08 80.85V80.86Z" fill="white"/>
</g>
<defs>
<clipPath id="clip0_37_273">
<rect width="335" height="155" fill="white" transform="translate(207 294)"/>
</clipPath>
<clipPath id="clip1_37_273">
<rect width="283.61" height="306.44" fill="white"/>
</clipPath>
</defs>
</svg>
