<svg width="1170" height="250" viewBox="0 0 1170 250" fill="none" xmlns="http://www.w3.org/2000/svg">
<g clip-path="url(#clip0_994_544)">
<path d="M98.15 2.30005H71.15L24.65 51.3V2.30005H0.5V107.3H24.65V80.79L38.72 66.1101L72.35 107.3H100.7L54.68 49.0801L98.15 2.30005Z" stroke="white"/>
<path d="M183.8 66L131.6 2.30005H111.5V107.3H135.5V43.57L187.85 107.3H207.8V2.30005H183.8V66Z" stroke="white"/>
<path d="M324.57 15.95C319.42 11.05 313.37 7.25 306.42 4.55C299.47 1.85 291.84 0.5 283.54 0.5C275.24 0.5 267.74 1.85 260.74 4.55C253.74 7.25 247.64 11.05 242.44 15.95C237.24 20.85 233.21 26.6 230.36 33.2C227.51 39.8 226.09 47 226.09 54.8C226.09 62.6 227.51 69.8 230.36 76.4C233.21 83 237.21 88.75 242.36 93.65C247.51 98.55 253.61 102.35 260.66 105.05C267.71 107.75 275.38 109.1 283.69 109.1C292 109.1 299.46 107.75 306.41 105.05C313.36 102.35 319.41 98.58 324.56 93.72C329.71 88.87 333.73 83.12 336.63 76.47C339.53 69.82 340.98 62.59 340.98 54.8C340.98 47.01 339.53 39.68 336.63 33.13C333.73 26.58 329.7 20.86 324.56 15.96L324.57 15.95ZM313.92 68.45C312.27 72.55 309.95 76.1 306.95 79.1C303.95 82.1 300.47 84.4 296.52 86C292.57 87.6 288.24 88.4 283.54 88.4C278.84 88.4 274.49 87.6 270.49 86C266.49 84.4 263.01 82.1 260.07 79.1C257.12 76.1 254.82 72.53 253.17 68.38C251.52 64.23 250.7 59.71 250.7 54.8C250.7 49.89 251.52 45.25 253.17 41.15C254.82 37.05 257.15 33.5 260.15 30.5C263.15 27.5 266.62 25.2 270.58 23.6C274.53 22 278.85 21.2 283.55 21.2C288.25 21.2 292.6 22 296.6 23.6C300.6 25.2 304.07 27.5 307.02 30.5C309.97 33.5 312.27 37.05 313.92 41.15C315.57 45.25 316.4 49.8 316.4 54.8C316.4 59.8 315.58 64.35 313.92 68.45V68.45Z" stroke="white"/>
<path d="M466.83 76.65L442.85 2.30005H420.35L395.59 76.11L371.9 2.30005H346.7L381.05 107.3H407.15L430.95 36.16L454.1 107.3H480.2L514.55 2.30005H491.3L466.83 76.65Z" stroke="white"/>
<path d="M605 87.5H552.35V2.30005H528.05V107.3H605V87.5Z" stroke="white"/>
<path d="M699.95 87.8H642.8V63.5H691.55V44.6H642.8V21.8H698V2.30005H618.65V107.3H699.95V87.8Z" stroke="white"/>
<path d="M797.14 100.77C805.84 96.42 812.64 90.32 817.54 82.47C822.44 74.62 824.89 65.4 824.89 54.8C824.89 44.2 822.44 34.85 817.54 27.05C812.64 19.25 805.84 13.17 797.14 8.83005C788.44 4.48005 778.39 2.30005 766.99 2.30005H719.29V107.3H766.99C778.39 107.3 788.44 105.13 797.14 100.77ZM743.59 87.35V22.25H765.79C772.79 22.25 778.86 23.58 784.01 26.22C789.16 28.87 793.16 32.6201 796.01 37.4701C798.86 42.3201 800.29 48.1 800.29 54.8C800.29 61.5 798.86 67.15 796.01 72.05C793.16 76.95 789.16 80.73 784.01 83.38C778.86 86.03 772.78 87.35 765.79 87.35H743.59Z" stroke="white"/>
<path d="M852.87 93.8C858.02 98.7 864.07 102.48 871.02 105.13C877.97 107.78 885.59 109.1 893.9 109.1C901.4 109.1 908.92 107.95 916.48 105.65C924.03 103.35 930.65 100.05 936.36 95.75V53.15H914.16V83.97C912.55 84.81 910.93 85.51 909.28 86.07C904.73 87.62 900.05 88.39 895.26 88.39C890.47 88.39 885.68 87.59 881.53 85.99C877.38 84.39 873.78 82.07 870.73 79.01C867.68 75.96 865.33 72.39 863.68 68.29C862.03 64.19 861.21 59.69 861.21 54.79C861.21 49.89 862.03 45.24 863.68 41.14C865.33 37.04 867.68 33.49 870.73 30.49C873.78 27.49 877.4 25.19 881.61 23.59C885.81 21.99 890.46 21.19 895.56 21.19C900.66 21.19 905.76 22.16 910.26 24.11C914.76 26.06 918.91 29.04 922.71 33.03L938.31 18.63C933.21 12.73 926.93 8.22998 919.49 5.12998C912.04 2.02998 903.66 0.47998 894.37 0.47998C885.97 0.47998 878.27 1.80998 871.27 4.44998C864.27 7.09998 858.17 10.88 852.97 15.78C847.77 20.68 843.74 26.43 840.89 33.03C838.04 39.63 836.62 46.88 836.62 54.78C836.62 62.68 838.04 69.93 840.89 76.53C843.74 83.13 847.74 88.88 852.89 93.78L852.87 93.8Z" stroke="white"/>
<path d="M1040.14 87.8H982.99V63.5H1031.74V44.6H982.99V21.8H1038.19V2.30005H958.84V107.3H1040.14V87.8Z" stroke="white"/>
<path d="M406.84 142.3H382.54V247.3H406.84V142.3Z" stroke="white"/>
<path d="M498.63 194.2C495.03 192 491.05 190.25 486.7 188.95C482.35 187.65 478 186.5 473.65 185.5C469.3 184.5 465.32 183.5 461.73 182.5C458.13 181.5 455.23 180.17 453.03 178.52C450.83 176.87 449.73 174.7 449.73 172C449.73 169.7 450.38 167.68 451.68 165.92C452.98 164.17 455.13 162.75 458.13 161.64C461.13 160.54 464.98 159.99 469.68 159.99C474.38 159.99 479.18 160.66 484.08 162.01C488.98 163.36 493.88 165.44 498.78 168.24L506.28 149.79C501.38 146.69 495.73 144.37 489.33 142.82C482.93 141.27 476.43 140.49 469.83 140.49C459.93 140.49 451.7 141.97 445.16 144.91C438.61 147.86 433.71 151.81 430.46 156.76C427.21 161.71 425.58 167.19 425.58 173.19C425.58 178.79 426.7 183.39 428.96 186.99C431.21 190.59 434.14 193.49 437.74 195.69C441.34 197.89 445.31 199.69 449.66 201.09C454.01 202.49 458.36 203.67 462.71 204.62C467.06 205.57 471.04 206.57 474.64 207.62C478.24 208.67 481.14 210.02 483.34 211.67C485.54 213.32 486.64 215.55 486.64 218.34C486.64 220.54 485.94 222.49 484.54 224.19C483.14 225.89 480.96 227.22 478.02 228.16C475.07 229.11 471.19 229.58 466.4 229.58C460.1 229.58 453.88 228.56 447.72 226.5C441.57 224.45 436.25 221.83 431.75 218.62L423.5 236.92C428.2 240.52 434.4 243.44 442.1 245.69C449.8 247.94 457.85 249.07 466.25 249.07C476.25 249.07 484.52 247.57 491.07 244.57C497.62 241.57 502.55 237.62 505.84 232.72C509.14 227.82 510.79 222.42 510.79 216.52C510.79 211.02 509.67 206.47 507.41 202.87C505.16 199.27 502.24 196.37 498.64 194.17L498.63 194.2Z" stroke="white"/>
<path d="M639.63 146.88C632.83 143.83 624.73 142.3 615.33 142.3H569.88V247.3H594.18V218.35H615.33C624.73 218.35 632.83 216.83 639.63 213.77C646.43 210.72 651.68 206.35 655.38 200.65C659.08 194.95 660.93 188.2 660.93 180.4C660.93 172.6 659.08 165.7 655.38 160C651.68 154.3 646.43 149.93 639.63 146.88V146.88ZM630.78 193.76C627.08 196.96 621.48 198.56 613.98 198.56H594.18V162.11H613.98C621.48 162.11 627.08 163.71 630.78 166.91C634.48 170.11 636.33 174.61 636.33 180.41C636.33 186.21 634.48 190.56 630.78 193.76V193.76Z" stroke="white"/>
<path d="M771.55 155.95C766.4 151.05 760.35 147.25 753.4 144.55C746.45 141.85 738.82 140.5 730.52 140.5C722.22 140.5 714.72 141.85 707.72 144.55C700.72 147.25 694.62 151.05 689.42 155.95C684.22 160.85 680.19 166.6 677.34 173.2C674.49 179.8 673.07 187 673.07 194.8C673.07 202.6 674.49 209.8 677.34 216.4C680.19 223 684.19 228.75 689.34 233.65C694.49 238.55 700.59 242.35 707.64 245.05C714.69 247.75 722.36 249.1 730.67 249.1C738.98 249.1 746.44 247.75 753.39 245.05C760.34 242.35 766.39 238.58 771.54 233.72C776.69 228.87 780.71 223.12 783.61 216.47C786.51 209.82 787.96 202.59 787.96 194.8C787.96 187.01 786.51 179.68 783.61 173.13C780.71 166.58 776.68 160.86 771.54 155.96L771.55 155.95ZM760.9 208.45C759.25 212.55 756.93 216.1 753.93 219.1C750.93 222.1 747.45 224.4 743.5 226C739.55 227.6 735.22 228.4 730.52 228.4C725.82 228.4 721.47 227.6 717.47 226C713.47 224.4 709.99 222.1 707.05 219.1C704.1 216.1 701.8 212.53 700.15 208.38C698.5 204.23 697.68 199.71 697.68 194.8C697.68 189.89 698.5 185.25 700.15 181.15C701.8 177.05 704.13 173.5 707.13 170.5C710.13 167.5 713.6 165.2 717.56 163.6C721.51 162 725.83 161.2 730.53 161.2C735.23 161.2 739.58 162 743.58 163.6C747.58 165.2 751.05 167.5 754 170.5C756.95 173.5 759.25 177.05 760.9 181.15C762.55 185.25 763.38 189.8 763.38 194.8C763.38 199.8 762.56 204.35 760.9 208.45Z" stroke="white"/>
<path d="M913.81 216.65L889.83 142.3H867.33L842.57 216.11L818.88 142.3H793.68L828.03 247.3H854.13L877.93 176.16L901.08 247.3H927.18L961.53 142.3H938.28L913.81 216.65Z" stroke="white"/>
<path d="M999.18 203.5H1047.93V184.6H999.18V161.8H1054.38V142.3H975.03V247.3H1056.33V227.8H999.18V203.5Z" stroke="white"/>
<path d="M1168.68 247.3L1145.22 213.63C1145.29 213.6 1145.36 213.58 1145.43 213.55C1152.23 210.55 1157.48 206.23 1161.18 200.58C1164.88 194.93 1166.73 188.2 1166.73 180.4C1166.73 172.6 1164.88 165.7 1161.18 160C1157.48 154.3 1152.23 149.93 1145.43 146.88C1138.63 143.83 1130.53 142.3 1121.13 142.3H1075.68V247.3H1099.98V218.05H1121.13C1121.51 218.05 1121.88 218.03 1122.26 218.03L1142.43 247.3H1168.68V247.3ZM1136.58 166.9C1140.28 170.1 1142.13 174.6 1142.13 180.4C1142.13 186.2 1140.28 190.58 1136.58 193.83C1132.88 197.08 1127.28 198.71 1119.78 198.71H1099.98V162.11H1119.78C1127.28 162.11 1132.88 163.71 1136.58 166.91V166.9Z" stroke="white"/>
</g>
<defs>
<clipPath id="clip0_994_544">
<rect width="1169.63" height="249.6" fill="white"/>
</clipPath>
</defs>
</svg>
