<svg width="2298" height="110" viewBox="0 0 2298 110" fill="none" xmlns="http://www.w3.org/2000/svg">
<g clip-path="url(#clip0_991_478)">
<path d="M98.98 15.95C93.83 11.05 87.78 7.25 80.83 4.55C73.88 1.85 66.25 0.5 57.95 0.5C49.65 0.5 42.15 1.85 35.15 4.55C28.15 7.25 22.05 11.05 16.85 15.95C11.65 20.85 7.62 26.6 4.77 33.2C1.92 39.8 0.5 47 0.5 54.8C0.5 62.6 1.92 69.8 4.77 76.4C7.62 83 11.62 88.75 16.77 93.65C21.92 98.55 28.02 102.35 35.07 105.05C42.12 107.75 49.79 109.1 58.1 109.1C66.41 109.1 73.87 107.75 80.82 105.05C87.77 102.35 93.82 98.58 98.97 93.72C104.12 88.87 108.14 83.12 111.04 76.47C113.94 69.82 115.39 62.59 115.39 54.8C115.39 47.01 113.94 39.68 111.04 33.13C108.14 26.58 104.11 20.86 98.97 15.95H98.98ZM88.33 68.45C86.68 72.55 84.36 76.1 81.36 79.1C78.36 82.1 74.88 84.4 70.93 86C66.98 87.6 62.65 88.4 57.95 88.4C53.25 88.4 48.9 87.6 44.9 86C40.9 84.4 37.42 82.1 34.48 79.1C31.53 76.1 29.23 72.53 27.58 68.38C25.93 64.23 25.11 59.71 25.11 54.8C25.11 49.89 25.93 45.25 27.58 41.15C29.23 37.05 31.56 33.5 34.56 30.5C37.56 27.5 41.03 25.2 44.99 23.6C48.94 22 53.26 21.2 57.96 21.2C62.66 21.2 67.01 22 71.01 23.6C75.01 25.2 78.48 27.5 81.43 30.5C84.38 33.5 86.68 37.05 88.33 41.15C89.98 45.25 90.81 49.8 90.81 54.8C90.81 59.8 89.99 64.35 88.33 68.45V68.45Z" stroke="white"/>
<path d="M203.9 60.1998C203.9 70.1998 201.85 77.3998 197.75 81.7998C193.65 86.1998 187.9 88.3998 180.5 88.3998C173.1 88.3998 167.35 86.1998 163.25 81.7998C159.15 77.3998 157.1 70.1998 157.1 60.1998V2.2998H132.8V61.0998C132.8 76.4998 137 88.3498 145.4 96.6498C153.8 104.95 165.45 109.1 180.35 109.1C195.25 109.1 206.9 104.95 215.3 96.6498C223.7 88.3498 227.9 76.4998 227.9 61.0998V2.2998H203.9V60.1998V60.1998Z" stroke="white"/>
<path d="M321.65 73.5498C328.45 70.5498 333.7 66.2298 337.4 60.5698C341.1 54.9198 342.95 48.1898 342.95 40.3998C342.95 32.6098 341.1 25.6998 337.4 19.9998C333.7 14.2998 328.45 9.9298 321.65 6.8798C314.85 3.8298 306.75 2.2998 297.35 2.2998H251.9V107.3H276.2V78.0498H297.35C297.73 78.0498 298.1 78.0298 298.48 78.0298L318.65 107.3H344.9L321.44 73.6298C321.51 73.5998 321.58 73.5798 321.65 73.5498ZM312.8 26.8998C316.5 30.0998 318.35 34.5998 318.35 40.3998C318.35 46.1998 316.5 50.5798 312.8 53.8198C309.1 57.0698 303.5 58.6998 296 58.6998H276.2V22.0998H296C303.5 22.0998 309.1 23.6998 312.8 26.8998V26.8998Z" stroke="white"/>
<path d="M476.59 43.6998H428.89V2.2998H404.59V107.3H428.89V64.2498H476.59V107.3H500.89V2.2998H476.59V43.6998Z" stroke="white"/>
<path d="M550.09 2.2998H525.79V107.3H550.09V2.2998Z" stroke="white"/>
<path d="M641.89 54.2C638.29 52 634.32 50.25 629.97 48.95C625.62 47.65 621.27 46.5 616.92 45.5C612.57 44.5 608.59 43.5 605 42.5C601.4 41.5 598.5 40.17 596.3 38.52C594.1 36.87 593 34.69 593 32C593 29.7 593.65 27.68 594.95 25.92C596.25 24.17 598.4 22.75 601.4 21.65C604.4 20.55 608.25 20 612.95 20C617.65 20 622.45 20.67 627.35 22.02C632.25 23.37 637.15 25.45 642.05 28.25L649.55 9.8C644.65 6.7 639 4.38 632.6 2.82C626.2 1.27 619.7 0.5 613.1 0.5C603.2 0.5 594.97 1.98 588.43 4.92C581.88 7.87 576.98 11.82 573.73 16.77C570.48 21.72 568.85 27.19 568.85 33.19C568.85 38.79 569.97 43.39 572.23 46.99C574.48 50.59 577.4 53.49 581.01 55.69C584.61 57.89 588.59 59.69 592.93 61.09C597.28 62.49 601.63 63.67 605.98 64.62C610.33 65.57 614.31 66.57 617.9 67.62C621.5 68.67 624.4 70.02 626.6 71.67C628.8 73.32 629.9 75.55 629.9 78.34C629.9 80.54 629.2 82.49 627.8 84.19C626.4 85.89 624.22 87.22 621.27 88.17C618.32 89.12 614.45 89.59 609.65 89.59C603.35 89.59 597.13 88.57 590.98 86.52C584.83 84.47 579.51 81.85 575.01 78.64L566.76 96.94C571.46 100.54 577.66 103.46 585.36 105.71C593.06 107.96 601.11 109.09 609.51 109.09C619.51 109.09 627.78 107.59 634.34 104.59C640.89 101.59 645.81 97.64 649.11 92.74C652.41 87.84 654.06 82.44 654.06 76.54C654.06 71.04 652.94 66.49 650.68 62.89C648.42 59.29 645.51 56.39 641.9 54.19L641.89 54.2Z" stroke="white"/>
<path d="M657.34 22.0998H690.94V107.3H715.24V22.0998H748.84V2.2998H657.34V22.0998Z" stroke="white"/>
<path d="M852.27 15.95C847.12 11.05 841.07 7.25 834.12 4.55C827.17 1.85 819.54 0.5 811.24 0.5C802.94 0.5 795.44 1.85 788.44 4.55C781.44 7.25 775.34 11.05 770.14 15.95C764.94 20.85 760.91 26.6 758.06 33.2C755.21 39.8 753.78 47 753.78 54.8C753.78 62.6 755.21 69.8 758.06 76.4C760.91 83 764.91 88.75 770.06 93.65C775.21 98.55 781.31 102.35 788.36 105.05C795.41 107.75 803.08 109.1 811.39 109.1C819.7 109.1 827.16 107.75 834.11 105.05C841.06 102.35 847.11 98.58 852.26 93.72C857.41 88.87 861.43 83.12 864.34 76.47C867.24 69.82 868.69 62.59 868.69 54.8C868.69 47.01 867.24 39.68 864.34 33.13C861.44 26.58 857.41 20.86 852.26 15.95H852.27ZM841.62 68.45C839.97 72.55 837.65 76.1 834.65 79.1C831.65 82.1 828.17 84.4 824.23 86C820.28 87.6 815.95 88.4 811.25 88.4C806.55 88.4 802.2 87.6 798.2 86C794.2 84.4 790.72 82.1 787.78 79.1C784.83 76.1 782.53 72.53 780.88 68.38C779.23 64.23 778.41 59.71 778.41 54.8C778.41 49.89 779.24 45.25 780.88 41.15C782.53 37.05 784.86 33.5 787.86 30.5C790.86 27.5 794.33 25.2 798.28 23.6C802.23 22 806.55 21.2 811.25 21.2C815.95 21.2 820.3 22 824.3 23.6C828.3 25.2 831.77 27.5 834.73 30.5C837.68 33.5 839.98 37.05 841.63 41.15C843.28 45.25 844.11 49.8 844.11 54.8C844.11 59.8 843.28 64.35 841.63 68.45H841.62Z" stroke="white"/>
<path d="M956.74 73.5498C963.54 70.5498 968.79 66.2298 972.49 60.5698C976.19 54.9198 978.04 48.1898 978.04 40.3998C978.04 32.6098 976.19 25.6998 972.49 19.9998C968.79 14.2998 963.54 9.9298 956.74 6.8798C949.94 3.8298 941.84 2.2998 932.44 2.2998H886.99V107.3H911.29V78.0498H932.44C932.82 78.0498 933.19 78.0298 933.57 78.0298L953.74 107.3H979.99L956.53 73.6298C956.6 73.5998 956.67 73.5798 956.74 73.5498V73.5498ZM947.89 26.8998C951.59 30.0998 953.44 34.5998 953.44 40.3998C953.44 46.1998 951.59 50.5798 947.89 53.8198C944.19 57.0698 938.59 58.6998 931.09 58.6998H911.29V22.0998H931.09C938.59 22.0998 944.19 23.6998 947.89 26.8998V26.8998Z" stroke="white"/>
<path d="M1063.09 2.2998L1034.98 48.9098L1006.99 2.2998H981.19L1021.84 69.8698V107.3H1046.14V70.1198L1086.94 2.2998H1063.09Z" stroke="white"/>
<path d="M1163.89 2.2998H1139.59V107.3H1163.89V2.2998Z" stroke="white"/>
<path d="M1255.68 54.2C1252.08 52 1248.11 50.25 1243.76 48.95C1239.41 47.65 1235.06 46.5 1230.71 45.5C1226.36 44.5 1222.38 43.5 1218.79 42.5C1215.19 41.5 1212.29 40.17 1210.09 38.52C1207.89 36.87 1206.79 34.69 1206.79 32C1206.79 29.7 1207.44 27.68 1208.74 25.92C1210.04 24.17 1212.19 22.75 1215.19 21.65C1218.19 20.55 1222.04 20 1226.74 20C1231.44 20 1236.24 20.67 1241.14 22.02C1246.04 23.37 1250.94 25.45 1255.84 28.25L1263.34 9.8C1258.44 6.7 1252.79 4.38 1246.39 2.82C1239.99 1.27 1233.49 0.5 1226.89 0.5C1216.99 0.5 1208.76 1.98 1202.22 4.92C1195.67 7.87 1190.77 11.82 1187.52 16.77C1184.27 21.72 1182.64 27.19 1182.64 33.19C1182.64 38.79 1183.76 43.39 1186.02 46.99C1188.27 50.59 1191.19 53.49 1194.8 55.69C1198.4 57.89 1202.38 59.69 1206.72 61.09C1211.07 62.49 1215.42 63.67 1219.77 64.62C1224.12 65.57 1228.1 66.57 1231.69 67.62C1235.29 68.67 1238.19 70.02 1240.39 71.67C1242.59 73.32 1243.69 75.55 1243.69 78.34C1243.69 80.54 1242.99 82.49 1241.59 84.19C1240.19 85.89 1238.01 87.22 1235.06 88.17C1232.11 89.12 1228.24 89.59 1223.44 89.59C1217.14 89.59 1210.92 88.57 1204.77 86.52C1198.62 84.47 1193.3 81.85 1188.8 78.64L1180.55 96.94C1185.25 100.54 1191.45 103.46 1199.15 105.71C1206.85 107.96 1214.9 109.09 1223.3 109.09C1233.3 109.09 1241.57 107.59 1248.13 104.59C1254.68 101.59 1259.6 97.64 1262.9 92.74C1266.2 87.84 1267.85 82.44 1267.85 76.54C1267.85 71.04 1266.73 66.49 1264.47 62.89C1262.21 59.29 1259.3 56.39 1255.69 54.19L1255.68 54.2Z" stroke="white"/>
<path d="M1315.08 22.0998H1348.68V107.3H1372.98V22.0998H1406.58V2.2998H1315.08V22.0998Z" stroke="white"/>
<path d="M1491.63 43.6998H1443.93V2.2998H1419.63V107.3H1443.93V64.2498H1491.63V107.3H1515.93V2.2998H1491.63V43.6998Z" stroke="white"/>
<path d="M1564.98 63.4998H1613.73V44.5998H1564.98V21.7998H1620.18V2.2998H1540.83V107.3H1622.13V87.7998H1564.98V63.4998Z" stroke="white"/>
<path d="M1683.93 107.3H1708.23V69.0498H1756.83V49.5498H1708.23V21.7998H1763.28V2.2998H1683.93V107.3Z" stroke="white"/>
<path d="M1849.98 60.1998C1849.98 70.1998 1847.93 77.3998 1843.83 81.7998C1839.73 86.1998 1833.98 88.3998 1826.58 88.3998C1819.18 88.3998 1813.43 86.1998 1809.33 81.7998C1805.23 77.3998 1803.18 70.1998 1803.18 60.1998V2.2998H1778.88V61.0998C1778.88 76.4998 1783.08 88.3498 1791.48 96.6498C1799.88 104.95 1811.53 109.1 1826.43 109.1C1841.33 109.1 1852.98 104.95 1861.38 96.6498C1869.78 88.3498 1873.98 76.4998 1873.98 61.0998V2.2998H1849.98V60.1998V60.1998Z" stroke="white"/>
<path d="M1884.33 22.0998H1917.93V107.3H1942.23V22.0998H1975.83V2.2998H1884.33V22.0998Z" stroke="white"/>
<path d="M2057.28 60.1998C2057.28 70.1998 2055.23 77.3998 2051.13 81.7998C2047.03 86.1998 2041.28 88.3998 2033.88 88.3998C2026.48 88.3998 2020.73 86.1998 2016.63 81.7998C2012.53 77.3998 2010.48 70.1998 2010.48 60.1998V2.2998H1986.18V61.0998C1986.18 76.4998 1990.38 88.3498 1998.78 96.6498C2007.18 104.95 2018.83 109.1 2033.73 109.1C2048.63 109.1 2060.28 104.95 2068.68 96.6498C2077.08 88.3498 2081.28 76.4998 2081.28 61.0998V2.2998H2057.28V60.1998V60.1998Z" stroke="white"/>
<path d="M2175.03 73.5498C2181.83 70.5498 2187.08 66.2298 2190.78 60.5698C2194.48 54.9198 2196.33 48.1898 2196.33 40.3998C2196.33 32.6098 2194.48 25.6998 2190.78 19.9998C2187.08 14.2998 2181.83 9.9298 2175.03 6.8798C2168.23 3.8298 2160.13 2.2998 2150.73 2.2998H2105.28V107.3H2129.58V78.0498H2150.73C2151.11 78.0498 2151.48 78.0298 2151.86 78.0298L2172.03 107.3H2198.28L2174.82 73.6298C2174.89 73.5998 2174.96 73.5798 2175.03 73.5498V73.5498ZM2166.18 26.8998C2169.88 30.0998 2171.73 34.5998 2171.73 40.3998C2171.73 46.1998 2169.88 50.5798 2166.18 53.8198C2162.48 57.0698 2156.88 58.6998 2149.38 58.6998H2129.58V22.0998H2149.38C2156.88 22.0998 2162.48 23.6998 2166.18 26.8998V26.8998Z" stroke="white"/>
<path d="M2239.67 87.7998V63.4998H2288.42V44.5998H2239.67V21.7998H2294.87V2.2998H2215.52V107.3H2296.82V87.7998H2239.67Z" stroke="white"/>
</g>
<defs>
<clipPath id="clip0_991_478">
<rect width="2297.32" height="109.6" fill="white"/>
</clipPath>
</defs>
</svg>
