<svg width="173" height="15" viewBox="0 0 173 15" fill="none" xmlns="http://www.w3.org/2000/svg">
<g filter="url(#filter0_dd_114_15)">
<path d="M11.2007 9.57663C11.2007 8.22018 11.1257 8.04755 10.4507 7.85025C10.3257 7.82559 10.0257 7.80093 9.87564 7.80093C9.80064 7.80093 9.75064 7.77627 9.75064 7.70228C9.75064 7.60363 9.82564 7.57896 10.0257 7.57896C10.7757 7.57896 11.8508 7.62828 11.9258 7.62828C12.0008 7.62828 13.0758 7.57896 13.5759 7.57896C13.7509 7.57896 13.8509 7.60363 13.8509 7.70228C13.8509 7.77627 13.7759 7.80093 13.7259 7.80093C13.6009 7.80093 13.5009 7.80092 13.3009 7.85025C12.8508 7.92424 12.7008 8.22018 12.6758 8.78742C12.6508 9.33 12.6508 9.82327 12.6508 10.5138V12.3882C12.6508 13.1281 12.6508 13.1774 12.4258 13.3007C11.3507 13.8679 9.82564 14.0406 8.85058 14.0406C7.5755 14.0406 5.17535 13.8679 3.30023 12.2649C2.27517 11.377 1.30011 9.6013 1.30011 7.50497C1.30011 4.8414 2.62519 2.96704 4.12529 2.02986C5.65038 1.09267 7.32549 0.96936 8.62557 0.96936C9.70063 0.96936 10.9007 1.19133 11.2007 1.26532C11.5507 1.33931 12.1508 1.41329 12.5758 1.43796C12.7508 1.43796 12.7758 1.51194 12.7758 1.58593C12.7758 1.80789 12.6508 2.27648 12.6508 3.95354C12.6508 4.22483 12.6258 4.29882 12.5008 4.29882C12.4258 4.29882 12.4008 4.20017 12.3758 4.05219C12.3758 3.83023 12.2758 3.36165 12.0258 2.94238C11.6008 2.30115 10.2257 1.58593 8.05053 1.58593C6.97546 1.58593 5.72539 1.68457 4.4253 2.69574C3.45024 3.46028 2.7502 4.98937 2.7502 6.93772C2.7502 9.28068 3.95028 10.9824 4.55031 11.5497C5.8754 12.8321 7.42549 13.3254 8.97559 13.3254C9.57563 13.3254 10.4757 13.2267 10.9007 12.9801C11.1257 12.8568 11.2257 12.6841 11.2257 12.3882V9.55198L11.2007 9.57663Z" fill="white"/>
<path d="M20.1263 6.04908C20.1263 3.4595 20.1263 2.99091 20.1013 2.44833C20.0763 1.88109 19.9263 1.60981 19.3763 1.51116C19.2512 1.4865 18.9512 1.46182 18.8012 1.46182C18.7262 1.46182 18.6762 1.43718 18.6762 1.36319C18.6762 1.26454 18.7512 1.23987 18.9512 1.23987C19.7013 1.23987 20.7763 1.28919 20.8513 1.28919C21.0264 1.28919 22.3264 1.23987 22.8515 1.23987C23.9265 1.23987 25.0516 1.33853 25.9517 1.97976C26.3767 2.27571 27.1267 3.08957 27.1267 4.24872C27.1267 5.48185 26.6017 6.71498 25.0766 8.09609C26.4517 9.84714 27.6018 11.3269 28.6018 12.3627C29.5269 13.2999 30.2519 13.4972 30.677 13.5712C31.002 13.6205 31.227 13.6205 31.327 13.6205C31.402 13.6205 31.477 13.6699 31.477 13.7192C31.477 13.8178 31.377 13.8425 31.077 13.8425H29.8769C28.9268 13.8425 28.5018 13.7685 28.0768 13.5219C27.3518 13.1273 26.7517 12.3134 25.8017 11.0803C25.1016 10.1678 24.3016 9.03327 23.9515 8.614C23.8765 8.54002 23.8265 8.51535 23.7265 8.51535H21.6514C21.6514 8.51535 21.5264 8.51535 21.5264 8.614V9.00862C21.5264 10.6117 21.5264 11.9188 21.6014 12.634C21.6514 13.1273 21.7514 13.4726 22.2514 13.5465C22.4764 13.5712 22.8515 13.6205 23.0015 13.6205C23.1015 13.6205 23.1265 13.6699 23.1265 13.7192C23.1265 13.7932 23.0515 13.8425 22.8515 13.8425C21.9264 13.8425 20.8513 13.7932 20.7763 13.7932C20.7763 13.7932 19.7013 13.8425 19.1762 13.8425C19.0012 13.8425 18.9012 13.8178 18.9012 13.7192C18.9012 13.6699 18.9262 13.6205 19.0262 13.6205C19.1762 13.6205 19.3763 13.5959 19.5263 13.5465C19.8513 13.4726 19.9513 13.1026 20.0263 12.634C20.1013 11.9435 20.1013 10.6117 20.1013 9.00862V6.07375L20.1263 6.04908ZM21.4764 7.50419C21.4764 7.50419 21.5014 7.65217 21.6014 7.7015C21.8514 7.84947 22.6265 7.97279 23.3765 7.97279C23.7765 7.97279 24.2516 7.92345 24.6516 7.65216C25.2516 7.25756 25.6766 6.34504 25.6766 5.08724C25.6766 2.99091 24.5516 1.75778 22.7515 1.75778C22.2514 1.75778 21.7764 1.80711 21.6264 1.85644C21.5514 1.8811 21.5014 1.95509 21.5014 2.05374V7.50419H21.4764Z" fill="white"/>
<path d="M37.7524 1.63452C37.9524 1.09194 38.0274 0.993286 38.1274 0.993286C38.2274 0.993286 38.3024 1.06727 38.5024 1.58519C38.7525 2.22641 41.4026 9.10731 42.4527 11.6476C43.0527 13.1273 43.5528 13.3986 43.9028 13.4973C44.1528 13.5713 44.4028 13.5959 44.5778 13.5959C44.6778 13.5959 44.7528 13.5959 44.7528 13.6946C44.7528 13.7932 44.6028 13.8179 44.4028 13.8179C44.1528 13.8179 42.9277 13.8179 41.7527 13.7932C41.4276 13.7932 41.2526 13.7932 41.2526 13.6699C41.2526 13.5959 41.3026 13.5712 41.3776 13.5466C41.4776 13.5219 41.5776 13.3739 41.4776 13.1027L39.9025 9.00866C39.9025 9.00866 39.8275 8.91 39.7525 8.91H36.1273C36.1273 8.91 36.0023 8.95934 35.9523 9.03333L34.9272 11.9928C34.7772 12.4121 34.7022 12.8067 34.7022 13.1027C34.7022 13.4479 35.0522 13.5959 35.3523 13.5959H35.5273C35.5273 13.5959 35.7023 13.6206 35.7023 13.6946C35.7023 13.7932 35.6023 13.8179 35.4523 13.8179C35.0522 13.8179 34.3272 13.7686 34.1272 13.7686C33.9272 13.7686 33.0021 13.8179 32.2271 13.8179C32.002 13.8179 31.902 13.7932 31.902 13.6946C31.902 13.6206 31.977 13.5959 32.052 13.5959C32.1771 13.5959 32.4021 13.5959 32.5521 13.5712C33.3271 13.4726 33.6771 12.8314 33.9772 11.9928L37.8024 1.63452H37.7524ZM39.5025 8.29344C39.5025 8.29344 39.5775 8.2441 39.5775 8.17012L37.9774 3.65686C37.9024 3.41023 37.8024 3.41023 37.7274 3.65686L36.2523 8.17012C36.2523 8.17012 36.2523 8.29344 36.3023 8.29344H39.5275H39.5025Z" fill="white"/>
<path d="M50.0031 11.5489C50.0281 12.9054 50.2032 13.3493 50.6532 13.4726C50.9782 13.5466 51.3532 13.5713 51.5032 13.5713C51.5782 13.5713 51.6282 13.5959 51.6282 13.6699C51.6282 13.7686 51.5282 13.7932 51.3282 13.7932C50.3532 13.7932 49.6781 13.7439 49.5281 13.7439C49.3781 13.7439 48.6781 13.7932 47.903 13.7932C47.728 13.7932 47.628 13.7932 47.628 13.6699C47.628 13.5959 47.678 13.5713 47.753 13.5713C47.878 13.5713 48.203 13.5713 48.453 13.4726C48.8781 13.3493 48.9531 12.8807 48.9531 11.3516V1.80717C48.9531 1.16594 49.0281 0.968628 49.1531 0.968628C49.2781 0.968628 49.5781 1.33857 49.7531 1.51121C50.0031 1.80716 52.5283 4.47073 55.1285 7.23295C56.8036 9.00866 58.6537 11.031 59.1787 11.5736L59.0037 3.11429C59.0037 2.02913 58.8787 1.65919 58.3537 1.53588C58.0536 1.46189 57.6536 1.46187 57.5286 1.46187C57.4036 1.46187 57.4036 1.41256 57.4036 1.33857C57.4036 1.23992 57.5286 1.21525 57.7286 1.21525C58.4787 1.21525 59.3037 1.26459 59.4787 1.26459C59.6538 1.26459 60.2288 1.21525 60.9038 1.21525C61.1038 1.21525 61.2038 1.21526 61.2038 1.33857C61.2038 1.41256 61.1288 1.46187 61.0288 1.46187C60.9538 1.46187 60.8288 1.46188 60.6288 1.51121C60.0788 1.63452 60.0038 2.00446 60.0038 2.99097V12.7574C59.9788 13.8672 59.9288 13.9412 59.8288 13.9412C59.7038 13.9412 59.4787 13.7686 58.6037 12.8807C58.4287 12.7081 55.9785 10.2665 54.2034 8.36743C52.2533 6.29577 50.3282 4.17477 49.8031 3.58287L50.0281 11.5736L50.0031 11.5489Z" fill="white"/>
<path d="M67.9293 6.04913C67.9293 3.45954 67.9293 2.99096 67.9043 2.44838C67.8793 1.88113 67.7293 1.60985 67.1792 1.5112C67.0542 1.48654 66.7542 1.46187 66.6042 1.46187C66.5292 1.46187 66.4792 1.43722 66.4792 1.36323C66.4792 1.26458 66.5542 1.23991 66.7542 1.23991C67.5043 1.23991 68.5793 1.28923 68.6543 1.28923C68.8543 1.28923 69.9294 1.23991 70.9295 1.23991C72.6046 1.23991 75.7048 1.09193 77.7049 3.13893C78.5549 4.00212 79.355 5.38324 79.355 7.38091C79.355 9.47724 78.4799 11.105 77.5299 12.0915C76.8048 12.8314 75.2797 14.0152 72.4046 14.0152C71.6795 14.0152 70.7795 13.9659 70.0544 13.9165C69.3044 13.8672 68.7293 13.8179 68.6543 13.8179C68.6293 13.8179 68.3293 13.8179 67.9793 13.8179C67.6293 13.8179 67.2542 13.8425 67.0042 13.8425C66.8292 13.8425 66.7292 13.8179 66.7292 13.7192C66.7292 13.6699 66.7542 13.6206 66.8542 13.6206C67.0042 13.6206 67.2042 13.5959 67.3542 13.5466C67.6793 13.4726 67.7793 13.1027 67.8543 12.6341C67.9293 11.9435 67.9293 10.6117 67.9293 9.00866V6.07379V6.04913ZM69.3544 7.84951C69.3544 9.62522 69.3544 11.1543 69.3794 11.4749C69.3794 11.8942 69.4294 12.5601 69.5794 12.7327C69.8044 13.0533 70.4544 13.3986 72.4546 13.3986C74.0297 13.3986 75.4798 12.8314 76.4798 11.8449C77.3549 11.0063 77.8299 9.40326 77.8299 7.84951C77.8299 5.72852 76.9048 4.37208 76.2048 3.65686C74.6047 2.00446 72.6796 1.78249 70.6795 1.78249C70.3544 1.78249 69.7294 1.83181 69.5794 1.90579C69.4294 1.97978 69.3794 2.05378 69.3794 2.22642C69.3794 2.79366 69.3794 4.49538 69.3794 5.77783V7.84951H69.3544Z" fill="white"/>
<path d="M97.3311 11.7955C98.3062 9.55119 100.581 3.75546 100.956 2.54699C101.031 2.30036 101.106 2.05373 101.106 1.90575C101.106 1.78244 101.056 1.60981 100.881 1.51116C100.681 1.43717 100.431 1.43717 100.231 1.43717C100.131 1.43717 100.056 1.43717 100.056 1.33852C100.056 1.23987 100.156 1.2152 100.431 1.2152C101.106 1.2152 101.881 1.26454 102.081 1.26454C102.181 1.26454 102.906 1.2152 103.406 1.2152C103.581 1.2152 103.706 1.23987 103.706 1.33852C103.706 1.43717 103.631 1.46182 103.506 1.46182C103.381 1.46182 103.006 1.46183 102.681 1.65913C102.456 1.80711 102.206 2.10307 101.756 3.21289C101.581 3.68148 100.731 5.67914 99.8562 7.72615C98.8312 10.1677 98.0561 11.9681 97.6811 12.782C97.2061 13.7932 97.1311 14.0398 96.9811 14.0398C96.7811 14.0398 96.6811 13.8178 96.381 13.004L92.2308 2.79361C91.8558 1.85643 91.6057 1.6838 91.0057 1.51116C90.7557 1.43717 90.4557 1.43717 90.3557 1.43717C90.2557 1.43717 90.2307 1.38784 90.2307 1.31385C90.2307 1.2152 90.4057 1.19055 90.6807 1.19055C91.4807 1.19055 92.4558 1.23987 92.6558 1.23987C92.8308 1.23987 93.5809 1.19055 94.2309 1.19055C94.5309 1.19055 94.6809 1.2152 94.6809 1.31385C94.6809 1.4125 94.6309 1.43717 94.5059 1.43717C94.3309 1.43717 94.0059 1.43717 93.8559 1.51116C93.6809 1.58515 93.6309 1.73312 93.6309 1.85644C93.6309 2.0784 93.8309 2.59631 94.0809 3.23754L97.3311 11.7708V11.7955Z" fill="white"/>
<path d="M110.007 8.98396C110.007 10.587 110.007 11.8942 110.082 12.6094C110.132 13.1026 110.232 13.4479 110.732 13.5219C110.957 13.5466 111.332 13.5959 111.482 13.5959C111.582 13.5959 111.607 13.6452 111.607 13.6945C111.607 13.7685 111.532 13.8178 111.332 13.8178C110.407 13.8178 109.332 13.7685 109.257 13.7685C109.182 13.7685 108.107 13.8178 107.607 13.8178C107.432 13.8178 107.332 13.7932 107.332 13.6945C107.332 13.6452 107.357 13.5959 107.457 13.5959C107.607 13.5959 107.807 13.5712 107.957 13.5219C108.282 13.4479 108.382 13.078 108.457 12.6094C108.532 11.9188 108.532 10.587 108.532 8.98396V6.04909C108.532 3.45951 108.532 2.99092 108.507 2.44834C108.482 1.8811 108.307 1.60982 107.932 1.51117C107.757 1.46184 107.532 1.43718 107.407 1.43718C107.332 1.43718 107.282 1.41252 107.282 1.33853C107.282 1.23988 107.357 1.21521 107.557 1.21521C108.107 1.21521 109.182 1.26455 109.257 1.26455C109.332 1.26455 110.407 1.21521 110.907 1.21521C111.082 1.21521 111.182 1.23988 111.182 1.33853C111.182 1.41252 111.107 1.43718 111.057 1.43718C110.932 1.43718 110.832 1.43718 110.632 1.4865C110.182 1.56049 110.032 1.85645 110.007 2.42369C109.982 2.96627 109.982 3.43486 109.982 6.02444V8.95929L110.007 8.98396Z" fill="white"/>
<path d="M117.332 13.6206C117.107 13.4973 117.082 13.448 117.082 12.9794C117.082 12.1408 117.157 11.4749 117.157 11.2037C117.157 11.031 117.207 10.9324 117.282 10.9324C117.382 10.9324 117.407 10.9817 117.407 11.105C117.407 11.253 117.407 11.4996 117.457 11.7216C117.707 12.9547 118.833 13.4233 119.958 13.4233C121.583 13.4233 122.383 12.2641 122.383 11.2037C122.383 10.0445 121.883 9.37861 120.433 8.1948L119.683 7.57824C117.882 6.12314 117.482 5.0873 117.482 3.95282C117.482 2.17711 118.833 0.94397 120.983 0.94397C121.633 0.94397 122.133 1.01796 122.558 1.11661C122.883 1.1906 123.008 1.19061 123.158 1.19061C123.308 1.19061 123.333 1.21526 123.333 1.31391C123.333 1.41256 123.258 1.95515 123.258 3.08963C123.258 3.36092 123.233 3.48424 123.133 3.48424C123.033 3.48424 123.008 3.41024 123.008 3.26227C123.008 3.06497 122.883 2.62105 122.783 2.42375C122.683 2.25111 122.233 1.53589 120.683 1.53589C119.508 1.53589 118.607 2.2511 118.607 3.45957C118.607 4.42142 119.058 5.01332 120.683 6.27112L121.158 6.64106C123.158 8.19481 123.633 9.23063 123.633 10.5624C123.633 11.253 123.358 12.5108 122.208 13.3246C121.483 13.8179 120.558 14.0152 119.658 14.0152C118.858 14.0152 118.082 13.8919 117.382 13.5713L117.332 13.6206Z" fill="white"/>
<path d="M131.833 8.98396C131.833 10.587 131.833 11.8942 131.908 12.6094C131.958 13.1026 132.058 13.4479 132.558 13.5219C132.783 13.5466 133.158 13.5959 133.308 13.5959C133.408 13.5959 133.433 13.6452 133.433 13.6945C133.433 13.7685 133.358 13.8178 133.158 13.8178C132.233 13.8178 131.158 13.7685 131.083 13.7685C131.008 13.7685 129.933 13.8178 129.433 13.8178C129.258 13.8178 129.158 13.7932 129.158 13.6945C129.158 13.6452 129.183 13.5959 129.283 13.5959C129.433 13.5959 129.633 13.5712 129.783 13.5219C130.108 13.4479 130.208 13.078 130.283 12.6094C130.358 11.9188 130.358 10.587 130.358 8.98396V6.04909C130.358 3.45951 130.358 2.99092 130.333 2.44834C130.308 1.8811 130.133 1.60982 129.758 1.51117C129.583 1.46184 129.358 1.43718 129.233 1.43718C129.158 1.43718 129.108 1.41252 129.108 1.33853C129.108 1.23988 129.183 1.21521 129.383 1.21521C129.933 1.21521 131.008 1.26455 131.083 1.26455C131.158 1.26455 132.233 1.21521 132.733 1.21521C132.908 1.21521 133.008 1.23988 133.008 1.33853C133.008 1.41252 132.933 1.43718 132.883 1.43718C132.758 1.43718 132.658 1.43718 132.458 1.4865C132.008 1.56049 131.858 1.85645 131.833 2.42369C131.808 2.96627 131.808 3.43486 131.808 6.02444V8.95929L131.833 8.98396Z" fill="white"/>
<path d="M144.534 0.993286C148.334 0.993286 151.184 3.3609 151.184 7.25761C151.184 11.1543 148.509 14.0645 144.434 14.0645C139.809 14.0645 137.884 10.5131 137.884 7.50423C137.884 4.816 139.884 0.993286 144.534 0.993286V0.993286ZM144.884 13.4233C146.409 13.4233 149.559 12.5601 149.559 7.70154C149.559 3.70618 147.084 1.56052 144.434 1.56052C141.609 1.56052 139.509 3.38556 139.509 7.03563C139.509 10.9077 141.884 13.4233 144.909 13.4233H144.884Z" fill="white"/>
<path d="M157.61 11.5489C157.635 12.9054 157.81 13.3493 158.26 13.4726C158.585 13.5466 158.96 13.5713 159.11 13.5713C159.185 13.5713 159.235 13.5959 159.235 13.6699C159.235 13.7686 159.135 13.7932 158.935 13.7932C157.96 13.7932 157.285 13.7439 157.135 13.7439C156.985 13.7439 156.285 13.7932 155.51 13.7932C155.335 13.7932 155.235 13.7932 155.235 13.6699C155.235 13.5959 155.285 13.5713 155.36 13.5713C155.485 13.5713 155.81 13.5713 156.06 13.4726C156.485 13.3493 156.56 12.8807 156.56 11.3516V1.80717C156.56 1.16594 156.635 0.968628 156.76 0.968628C156.885 0.968628 157.185 1.33857 157.36 1.51121C157.61 1.80716 160.135 4.47073 162.735 7.23295C164.41 9.00866 166.26 11.031 166.785 11.5736L166.61 3.11429C166.61 2.02913 166.485 1.65919 165.96 1.53588C165.66 1.46189 165.26 1.46187 165.135 1.46187C165.01 1.46187 165.01 1.41256 165.01 1.33857C165.01 1.23992 165.135 1.21525 165.335 1.21525C166.085 1.21525 166.91 1.26459 167.085 1.26459C167.26 1.26459 167.836 1.21525 168.511 1.21525C168.711 1.21525 168.811 1.21526 168.811 1.33857C168.811 1.41256 168.736 1.46187 168.636 1.46187C168.561 1.46187 168.436 1.46188 168.236 1.51121C167.686 1.63452 167.611 2.00446 167.611 2.99097V12.7574C167.586 13.8672 167.536 13.9412 167.436 13.9412C167.31 13.9412 167.085 13.7686 166.21 12.8807C166.035 12.7081 163.585 10.2665 161.81 8.36743C159.86 6.29577 157.935 4.17477 157.41 3.58287L157.635 11.5736L157.61 11.5489Z" fill="white"/>
</g>
<defs>
<filter id="filter0_dd_114_15" x="-2.69989" y="0.94397" width="175.51" height="21.1205" filterUnits="userSpaceOnUse" color-interpolation-filters="sRGB">
<feFlood flood-opacity="0" result="BackgroundImageFix"/>
<feColorMatrix in="SourceAlpha" type="matrix" values="0 0 0 0 0 0 0 0 0 0 0 0 0 0 0 0 0 0 127 0" result="hardAlpha"/>
<feOffset dy="4"/>
<feGaussianBlur stdDeviation="2"/>
<feComposite in2="hardAlpha" operator="out"/>
<feColorMatrix type="matrix" values="0 0 0 0 0 0 0 0 0 0 0 0 0 0 0 0 0 0 0.25 0"/>
<feBlend mode="normal" in2="BackgroundImageFix" result="effect1_dropShadow_114_15"/>
<feColorMatrix in="SourceAlpha" type="matrix" values="0 0 0 0 0 0 0 0 0 0 0 0 0 0 0 0 0 0 127 0" result="hardAlpha"/>
<feOffset dy="4"/>
<feGaussianBlur stdDeviation="2"/>
<feComposite in2="hardAlpha" operator="out"/>
<feColorMatrix type="matrix" values="0 0 0 0 0 0 0 0 0 0 0 0 0 0 0 0 0 0 0.25 0"/>
<feBlend mode="normal" in2="effect1_dropShadow_114_15" result="effect2_dropShadow_114_15"/>
<feBlend mode="normal" in="SourceGraphic" in2="effect2_dropShadow_114_15" result="shape"/>
</filter>
</defs>
</svg>
