<svg width="63" height="125" viewBox="0 0 63 125" fill="none" xmlns="http://www.w3.org/2000/svg">
<path d="M62.104 50.6298C54.2535 48.2128 45.778 43.6995 40.0276 38.619H55.3536V15.2881H34.6273V11.5394H60.6539V5.62038H34.6273V0.145264H27.4518V5.62038H2.02523V11.5394H27.4268V15.2881H7.67558V38.619H22.1515C16.4761 43.6995 8.22561 48.2375 0.525132 50.7037L-0.0249023 50.9011L0.400124 51.271C1.75021 52.3561 3.65033 54.5018 4.60039 55.9076L4.7754 56.1542L5.05041 56.0309C12.9259 53.0714 21.2514 47.9415 27.4518 41.9732V57.2887H34.6273V41.7019C40.8777 47.8182 49.4032 53.1947 57.4037 56.1542L57.7037 56.2529L57.8537 56.0309C58.7788 54.5758 60.7539 52.2822 62.204 51.197L62.704 50.8271L62.129 50.6544L62.104 50.6298ZM27.4268 33.5879H14.451V29.3459H27.4268V33.5879ZM27.4268 24.5613H14.451V20.344H27.4268V24.5613ZM48.3531 20.344V24.5613H34.6023V20.344H48.3531ZM34.6023 33.6125V29.3705H48.3531V33.6125H34.6023Z" fill="white"/>
<path d="M5.00023 97.3409L5.15024 97.0696C7.70039 93.0003 8.65045 86.514 8.67546 80.9156V80.6196L3.67514 79.9784V80.3483C3.60014 85.6261 2.62508 91.7178 0.424942 94.9733L0.174927 95.2939L0.54995 95.4419L5.02523 97.3163L5.00023 97.3409Z" fill="white"/>
<path d="M61.5289 112.508H46.7279V108.76H59.6287V103.852H46.7279V100.843H57.6786V87.4019H27.6017V100.843H39.5275V103.852H24.9766V108.76H39.5275V112.508H32.227L33.2771 110.166L26.0016 109.426L23.2515 117.737H39.5025V124.47H46.7279V117.737H61.5289V112.484V112.508ZM33.9271 92.0878H51.1282V96.1078H33.9271V92.0878Z" fill="white"/>
<path d="M62.5539 85.3055V80.2004H56.3536V71.5438H42.6277C42.8027 70.8285 42.9527 70.1626 43.1027 69.5214L43.4027 67.721C42.5527 67.6224 40.8526 67.4991 37.2523 67.2278H36.9273L36.8773 67.4744C36.6273 68.7569 36.3273 70.138 36.0023 71.5438H27.2767V76.3776H34.8772L33.9271 80.225H26.4767L20.1513 77.6601L20.0513 78.03C19.3012 80.6443 17.9511 84.1217 16.6511 87.0812V67.3511H10.4507V88.5363C10.4507 99.5606 9.42561 111.029 0.450043 119.759L0.150024 120.031L0.500046 120.253C1.75012 120.968 3.62524 122.891 4.45029 124.075L4.70031 124.396L5.02533 124.1C10.0006 119.365 12.8508 113.914 14.5509 108.143C16.376 110.733 18.3262 113.544 19.3762 115.345L19.6012 115.715L24.4015 111.374L24.2015 111.152C23.0015 109.598 18.0261 103.408 15.951 101.04C16.351 97.9082 16.5761 94.6527 16.6261 91.4219L19.2012 92.6304L19.3762 92.3591C20.8763 89.8928 22.7514 86.3414 24.1265 83.3078V85.3549H62.5539V85.3055ZM41.4776 76.3776H49.9281V80.225H40.5026C40.8526 79.0412 41.1776 77.7094 41.5026 76.3776H41.4776Z" fill="white"/>
</svg>
