<svg width="991" height="250" viewBox="0 0 991 250" fill="none" xmlns="http://www.w3.org/2000/svg">
<g clip-path="url(#clip0_994_500)">
<path d="M106.45 15.95C101.3 11.05 95.2502 7.25 88.3002 4.55C81.3502 1.85 73.7202 0.5 65.4202 0.5C57.1202 0.5 49.6202 1.85 42.6202 4.55C35.6202 7.25 29.5202 11.05 24.3202 15.95C19.1202 20.85 15.0902 26.6 12.2402 33.2C9.39021 39.8 7.97021 47 7.97021 54.8C7.97021 62.6 9.39021 69.8 12.2402 76.4C15.0902 83 19.0902 88.75 24.2402 93.65C29.3902 98.55 35.4902 102.35 42.5402 105.05C49.5902 107.75 57.2602 109.1 65.5702 109.1C73.8802 109.1 81.3402 107.75 88.2902 105.05C95.2402 102.35 101.29 98.58 106.44 93.72C111.59 88.87 115.61 83.12 118.51 76.47C121.41 69.82 122.86 62.59 122.86 54.8C122.86 47.01 121.41 39.68 118.51 33.13C115.61 26.58 111.58 20.86 106.44 15.96L106.45 15.95ZM95.8002 68.45C94.1502 72.55 91.8302 76.1 88.8302 79.1C85.8302 82.1 82.3502 84.4 78.4002 86C74.4502 87.6 70.1202 88.4 65.4202 88.4C60.7202 88.4 56.3702 87.6 52.3702 86C48.3702 84.4 44.8902 82.1 41.9502 79.1C39.0002 76.1 36.7002 72.53 35.0502 68.38C33.4002 64.23 32.5802 59.71 32.5802 54.8C32.5802 49.89 33.4002 45.25 35.0502 41.15C36.7002 37.05 39.0302 33.5 42.0302 30.5C45.0302 27.5 48.5002 25.2 52.4602 23.6C56.4102 22 60.7302 21.2 65.4302 21.2C70.1302 21.2 74.4802 22 78.4802 23.6C82.4802 25.2 85.9502 27.5 88.9002 30.5C91.8502 33.5 94.1502 37.05 95.8002 41.15C97.4502 45.25 98.2802 49.8 98.2802 54.8C98.2802 59.8 97.4602 64.35 95.8002 68.45V68.45Z" stroke="white"/>
<path d="M211.37 60.2001C211.37 70.2001 209.32 77.4 205.22 81.8C201.12 86.2 195.37 88.4 187.97 88.4C180.57 88.4 174.82 86.2 170.72 81.8C166.62 77.4 164.57 70.2001 164.57 60.2001V2.30005H140.27V61.1C140.27 76.5 144.47 88.35 152.87 96.65C161.27 104.95 172.92 109.1 187.82 109.1C202.72 109.1 214.37 104.95 222.77 96.65C231.17 88.35 235.37 76.5 235.37 61.1V2.30005H211.37V60.2001V60.2001Z" stroke="white"/>
<path d="M283.67 78.05H304.82C305.2 78.05 305.57 78.03 305.95 78.03L326.12 107.3H352.37L328.91 73.63C328.98 73.6 329.05 73.58 329.12 73.55C335.92 70.55 341.17 66.2301 344.87 60.5801C348.57 54.9301 350.42 48.2001 350.42 40.4001C350.42 32.6001 348.57 25.7 344.87 20C341.17 14.3 335.92 9.93005 329.12 6.88005C322.32 3.83005 314.22 2.30005 304.82 2.30005H259.37V107.3H283.67V78.05ZM320.27 26.9C323.97 30.1 325.82 34.6001 325.82 40.4001C325.82 46.2001 323.97 50.5801 320.27 53.8301C316.57 57.0801 310.97 58.71 303.47 58.71H283.67V22.1H303.47C310.97 22.1 316.57 23.7 320.27 26.9V26.9Z" stroke="white"/>
<path d="M47.57 142.3L0.77002 247.3H25.67L35.03 224.8H83.7L93.02 247.3H118.52L71.57 142.3H47.57V142.3ZM42.7 206.35L59.41 166.17L76.06 206.35H42.7Z" stroke="white"/>
<path d="M207.32 148.83C198.62 144.48 188.57 142.3 177.17 142.3H129.47V247.3H177.17C188.57 247.3 198.62 245.13 207.32 240.77C216.02 236.42 222.82 230.32 227.72 222.47C232.62 214.62 235.07 205.4 235.07 194.8C235.07 184.2 232.62 174.85 227.72 167.05C222.82 159.25 216.02 153.17 207.32 148.83V148.83ZM206.2 212.05C203.35 216.95 199.35 220.73 194.2 223.38C189.05 226.03 182.97 227.35 175.98 227.35H153.78V162.25H175.98C182.98 162.25 189.05 163.58 194.2 166.22C199.35 168.87 203.35 172.62 206.2 177.47C209.05 182.32 210.48 188.1 210.48 194.8C210.48 201.5 209.05 207.15 206.2 212.05Z" stroke="white"/>
<path d="M326.72 142.3L294.3 217.29L262.37 142.3H236.12L281.42 247.3H305.42L350.87 142.3H326.72Z" stroke="white"/>
<path d="M389.12 142.3L342.32 247.3H367.22L376.58 224.8H425.25L434.57 247.3H460.07L413.12 142.3H389.12ZM384.25 206.35L400.96 166.17L417.61 206.35H384.25V206.35Z" stroke="white"/>
<path d="M543.32 206L491.12 142.3H471.02V247.3H495.02V183.57L547.37 247.3H567.32V142.3H543.32V206Z" stroke="white"/>
<path d="M671.87 142.3H580.37V162.1H613.97V247.3H638.27V162.1H671.87V142.3Z" stroke="white"/>
<path d="M712.67 142.3L665.87 247.3H690.77L700.13 224.8H748.8L758.12 247.3H783.62L736.67 142.3H712.67ZM707.8 206.35L724.51 166.17L741.16 206.35H707.8Z" stroke="white"/>
<path d="M820.591 170.5C823.641 167.5 827.26 165.2 831.47 163.6C835.67 162 840.32 161.2 845.42 161.2C850.52 161.2 855.62 162.17 860.12 164.12C864.62 166.07 868.77 169.05 872.57 173.04L888.17 158.64C883.07 152.74 876.79 148.24 869.35 145.14C861.9 142.04 853.52 140.49 844.23 140.49C835.83 140.49 828.13 141.82 821.13 144.46C814.13 147.11 808.031 150.89 802.831 155.79C797.631 160.69 793.6 166.44 790.75 173.04C787.9 179.64 786.48 186.89 786.48 194.79C786.48 202.69 787.9 209.94 790.75 216.54C793.6 223.14 797.6 228.89 802.75 233.79C807.9 238.69 813.951 242.47 820.901 245.12C827.851 247.77 835.471 249.09 843.781 249.09C851.281 249.09 858.8 247.94 866.36 245.64C873.91 243.34 880.53 240.04 886.24 235.74V193.14H864.04V223.96C862.43 224.8 860.81 225.5 859.16 226.06C854.61 227.61 849.931 228.38 845.141 228.38C840.351 228.38 835.56 227.58 831.41 225.98C827.26 224.38 823.66 222.06 820.61 219C817.56 215.95 815.21 212.38 813.56 208.28C811.91 204.18 811.091 199.68 811.091 194.78C811.091 189.88 811.91 185.23 813.56 181.13C815.21 177.03 817.56 173.48 820.61 170.48L820.591 170.5Z" stroke="white"/>
<path d="M932.87 227.8V203.5H981.62V184.6H932.87V161.8H988.07V142.3H908.72V247.3H990.02V227.8H932.87Z" stroke="white"/>
</g>
<defs>
<clipPath id="clip0_994_500">
<rect width="990.52" height="249.6" fill="white"/>
</clipPath>
</defs>
</svg>
