<svg width="419" height="397" viewBox="0 0 419 397" fill="none" xmlns="http://www.w3.org/2000/svg">
<g opacity="0.08" clip-path="url(#clip0_16_270)">
<path d="M418.576 364.46C419.033 361.266 415.394 359.443 416.3 355.791C417.213 353.054 414.023 351.689 412.195 349.859C407.185 348.944 404.003 344.384 398.985 344.842C396.708 341.198 391.69 343.011 389.871 339.825C387.137 338.918 383.947 338.918 381.67 338.003C378.48 334.35 373.013 334.808 368.917 332.986C366.64 330.706 363.907 333.901 361.63 331.621C358.897 332.079 356.163 331.621 353.887 330.714C347.506 329.341 340.677 329.342 335.21 327.062C333.847 327.519 332.476 328.892 332.019 327.519C329.286 326.155 325.19 327.519 321.999 325.697C319.723 326.613 316.989 325.697 314.713 326.613C311.522 326.613 313.35 322.96 311.522 321.596C312.885 314.756 312.428 307.451 311.979 300.155C313.35 298.333 311.979 295.138 312.893 293.316C318.817 288.756 322.913 281.451 329.751 277.35C329.294 276.443 330.665 275.985 331.114 275.07C331.571 274.612 331.114 273.705 330.657 273.248C331.571 271.883 332.027 274.163 333.39 273.705C335.667 270.053 341.133 269.604 342.504 265.036C344.324 261.841 343.867 260.019 343.418 256.824C343.875 255.459 344.781 254.087 345.695 254.087C347.057 252.722 348.428 250.892 349.791 249.527C353.438 248.62 352.067 243.595 356.172 242.688C362.096 235.392 366.649 228.095 372.115 220.332C373.935 215.773 377.582 210.756 376.212 205.281C376.669 203.459 376.212 201.18 374.849 199.807C373.935 197.069 373.478 192.968 370.753 191.137C370.296 187.035 364.829 184.747 363.009 181.103C355.723 176.086 346.609 177.001 337.951 178.366C330.208 177.451 324.741 184.298 316.541 183.383C315.178 183.383 314.721 184.756 313.807 184.298C312.893 184.298 312.893 183.383 312.436 182.934C313.807 179.281 313.35 174.722 312.893 171.069C313.35 167.874 314.256 164.679 317.446 163.315C322.913 160.12 329.294 157.383 335.21 154.645C338.857 152.366 343.867 149.629 343.867 144.612C342.047 139.137 338.857 133.205 332.933 131.383C328.38 130.925 323.819 131.84 319.723 132.298C317.903 131.84 319.266 130.018 318.809 128.645C319.723 124.544 321.085 120.433 320.628 115.416C319.257 111.764 314.704 112.222 312.885 110.399C310.151 109.942 306.055 109.493 304.228 111.772C299.218 111.772 300.132 117.247 298.304 119.527C297.847 122.721 296.484 125.459 299.675 127.738C299.675 131.84 301.951 136.866 299.218 140.967C296.941 140.51 295.122 142.789 292.837 142.332C290.103 144.162 286.456 142.789 283.722 144.162C281.903 144.162 280.532 146.442 278.712 145.077C276.893 145.993 272.789 145.535 271.883 147.357L270.52 145.993C268.693 146.9 266.873 146.9 265.053 146.9C264.14 147.357 264.597 148.73 265.51 148.73C267.787 153.289 272.797 156.027 275.987 159.222C280.083 160.586 283.274 164.696 286.921 165.154C290.112 167.891 294.665 168.806 298.312 170.171C301.502 168.806 300.589 171.993 302.416 173.366C300.14 176.56 302.416 180.662 301.045 184.315C304.693 191.611 293.302 190.247 292.845 195.722C291.931 196.179 291.026 195.722 290.569 194.806C288.749 197.086 285.102 196.637 284.188 199.823C282.36 199.366 279.635 200.739 277.807 202.561C275.53 201.645 275.073 205.298 272.797 204.84C265.51 209.4 260.949 216.705 253.206 220.349C249.11 215.79 249.558 208.485 245.005 204.383C242.272 196.628 234.071 190.696 227.242 187.052C226.785 188.417 228.156 189.789 228.605 191.611C230.424 192.527 229.518 195.264 231.338 196.171C235.434 207.12 236.348 218.976 238.624 230.383C238.624 236.315 237.711 241.79 239.987 246.807C236.797 250.459 240.901 254.103 239.073 257.298C239.987 266.425 249.55 270.985 255.474 275.544L262.76 277.366C268.684 270.976 265.037 261.4 266.856 253.646C266.856 246.807 270.952 240.417 273.686 234.485C275.057 230.383 278.239 228.552 280.972 224.908C286.896 220.807 293.277 216.239 300.107 214.417C302.84 217.612 300.564 221.256 301.469 224.908C302.832 229.925 297.373 231.747 297.373 235.4L293.277 234.485C291.001 236.307 286.896 236.764 284.62 239.502C283.714 240.866 283.257 242.697 284.62 244.061C287.353 244.519 289.63 246.341 292.363 245.426C293.726 246.341 296.459 245.883 295.554 248.62C292.82 253.637 285.991 256.375 284.163 262.764C288.259 263.68 290.087 258.205 293.726 257.29C296.002 255.925 298.279 253.188 301.012 254.553C301.012 259.112 301.926 265.502 300.098 270.519C298.27 268.697 296.451 269.612 294.631 269.612C294.631 272.349 297.822 273.714 298.279 276.002C298.279 277.366 296.459 276.909 296.002 278.739C292.363 279.197 289.621 281.476 285.982 282.391C281.429 282.849 277.782 286.951 272.315 285.129C268.668 283.756 271.858 280.569 271.858 278.739C270.944 278.739 270.039 277.366 269.582 278.739C267.305 280.103 266.391 281.476 265.486 283.756C263.209 286.493 265.486 289.231 265.942 291.968C269.582 296.07 275.057 297.442 280.058 296.985C281.886 299.265 278.696 301.544 280.058 304.282C281.886 301.544 283.249 298.349 286.439 296.985C288.259 296.07 290.992 293.79 292.82 295.154C291.449 296.985 290.087 299.265 288.724 301.544C286.448 304.282 284.171 309.299 280.067 310.671C278.247 308.841 280.524 307.019 279.153 305.197C279.153 306.561 277.782 306.561 277.782 307.934C275.048 309.756 277.325 313.866 275.048 315.231C274.135 320.248 269.582 323.9 266.391 328.002C262.295 336.214 252.724 336.671 246.351 341.688C244.532 341.231 244.075 343.519 242.704 343.968C243.161 344.426 244.523 344.426 245.437 344.426C247.714 344.883 249.99 341.239 251.818 343.519C251.361 346.256 247.722 348.536 246.351 350.816C239.522 357.655 233.141 364.96 224.941 369.977C219.474 374.078 214.921 377.273 208.997 380.468C207.626 380.011 204.892 381.833 203.987 379.553C203.987 371.799 211.73 368.604 215.835 362.672C217.654 362.214 219.931 361.765 220.388 359.934C223.121 358.57 223.578 356.282 225.854 354.917C229.045 354.002 229.951 350.807 232.684 349.443C231.321 349.443 228.588 350.807 228.131 352.638C225.854 353.545 223.578 354.46 222.207 356.29C218.111 356.748 217.197 360.85 213.093 361.765C209.445 364.044 206.712 366.782 202.616 369.519C200.339 372.714 195.329 374.536 193.959 378.188C191.682 384.578 182.111 385.485 183.025 393.239C185.758 396.892 189.854 397.35 194.415 396.892C197.149 395.985 199.882 395.07 202.616 396.434C209.445 393.697 216.74 391.875 222.207 386.4C223.113 386.4 224.941 385.943 225.398 384.578C229.951 383.663 232.684 379.104 235.874 376.366C240.884 371.349 247.722 367.239 250.447 360.858C253.638 359.493 255.914 355.841 258.191 353.104C259.105 350.366 262.744 350.366 262.744 347.171C265.477 344.434 269.573 343.061 271.858 339.417L272.772 339.875C272.772 347.629 274.135 354.019 275.505 361.315C276.876 364.51 276.419 368.155 277.782 371.349C278.696 375.909 281.429 380.019 284.163 384.578C285.525 386.4 286.896 388.231 287.802 390.51C289.621 393.705 292.812 395.07 296.002 396.443C299.65 398.273 300.555 393.248 303.746 392.79C306.936 391.426 308.756 388.68 310.575 385.485L311.032 386.4C311.938 385.485 312.395 384.578 312.395 383.663C315.128 381.383 314.214 378.189 314.671 374.536C315.585 371.341 314.671 369.061 314.214 365.867C315.585 363.587 313.309 360.392 314.671 357.205C313.309 353.095 314.214 348.078 312.852 344.426C313.309 340.324 313.309 336.214 312.852 332.57C313.309 331.205 312.395 328.468 314.214 327.553C316.948 328.468 320.595 327.553 322.872 329.375C326.062 328.46 328.796 330.748 331.529 330.29C332.435 331.205 333.805 331.205 335.176 331.205C337.91 333.027 340.643 333.027 343.377 334.4C344.291 333.942 343.377 332.12 344.739 331.663C345.196 332.12 345.653 332.578 345.653 333.027L346.11 332.57L349.301 335.765C353.854 336.68 357.501 339.866 362.054 341.697C363.882 342.154 365.701 342.612 367.064 343.976C367.978 343.519 368.435 342.612 369.797 343.061V344.892C373.893 345.807 375.264 349.909 379.36 351.273C381.637 353.553 384.37 354.468 386.647 356.748C385.284 359.485 382.543 359.943 379.817 359.943C378.912 360.858 377.541 361.307 377.99 362.68C379.36 364.51 382.543 363.138 384.37 364.053C390.294 365.875 396.667 368.155 402.142 370.434C405.789 370.892 407.152 373.629 410.342 374.087C412.619 373.629 414.438 376.824 416.266 374.087C417.637 371.349 419.914 368.612 418.543 364.51L418.576 364.46ZM297.863 325.689C298.32 326.147 298.777 325.689 298.777 326.147C298.777 327.969 300.597 328.426 300.597 330.248C299.683 341.655 300.14 353.054 299.234 363.545C299.234 365.825 300.597 368.562 298.32 369.477C293.31 367.198 288.757 363.096 286.929 357.164C283.739 353.511 284.196 348.952 281.463 345.299C281.92 343.477 280.092 341.647 279.643 339.825C278.729 337.545 279.643 334.808 278.272 332.528C280.549 330.248 284.196 328.426 286.929 326.596C286.024 325.681 284.653 326.596 284.196 325.223C288.749 319.291 294.673 314.274 300.14 308.342C300.597 307.884 301.054 308.799 301.054 309.257C298.777 311.537 302.873 313.816 300.597 316.554C299.683 319.748 303.33 324.765 297.863 325.681V325.689ZM324.284 204.799C330.665 204.341 335.675 200.697 342.047 199.782C346.143 199.782 350.705 198.417 352.524 202.977C352.981 207.536 350.696 211.189 350.696 215.748C348.42 218.943 347.963 223.045 345.23 226.239C345.686 228.062 343.41 228.519 343.41 230.341L340.677 235.816C336.124 235.358 335.667 229.426 332.019 228.519H331.562C331.105 228.519 331.105 227.604 331.105 227.146L332.468 226.231C331.105 222.121 327.001 219.392 326.544 214.367C325.181 211.629 323.354 207.977 324.267 204.79L324.284 204.799ZM311.988 210.273C312.902 207.078 318.817 207.078 319.731 211.189C322.008 213.926 322.008 218.028 323.378 221.222C322.921 227.612 316.092 223.502 312.902 225.782C309.254 220.307 314.721 215.29 311.988 210.273ZM312.902 245.858C315.635 246.773 318.368 243.578 321.102 245.401C322.473 245.401 322.93 244.036 323.378 243.121C324.292 246.773 329.302 243.578 329.759 246.773C332.036 252.248 325.206 254.985 322.473 258.18C319.739 260.46 316.092 262.282 312.453 262.74C311.547 259.087 312.91 254.07 311.09 250.426C312.453 249.061 310.633 246.773 312.91 245.866L312.902 245.858Z" fill="white"/>
<path d="M281.912 265.468L280.998 265.926C280.541 266.383 280.998 266.841 281.912 267.299C282.369 266.383 282.825 265.468 281.912 265.468Z" fill="white"/>
<path d="M238.184 345.765C237.727 346.223 236.365 347.13 236.814 348.045C238.184 348.952 238.184 346.672 238.184 345.765Z" fill="white"/>
</g>
<g opacity="0.08" clip-path="url(#clip1_16_270)">
<path d="M240 41.1175C237.754 43.8758 234.874 46.3258 233.366 49.4439C225.72 65.257 218.16 81.1216 211.251 97.2603C209.949 100.293 211.56 104.713 212.246 108.413C213.24 113.793 219.394 115.815 218.726 123.747C217.834 134.232 211.886 131.474 207.051 131.559C202.817 131.628 198.549 129.675 194.211 128.612C189.377 137.778 184.937 146.653 180.051 155.27C176.914 160.787 173.057 165.892 169.629 171.255C156.977 190.991 141.823 208.621 121.663 220.699C111.874 226.558 100.046 229.025 89.1428 233.034H87.4285C84.8228 231.03 83.28 226.455 78.6343 229.419C77.4343 227.415 76.0971 225.462 75.1885 223.32C75.0857 223.08 77.28 221.298 78.5485 221.11C89.8114 219.5 96.84 211.156 104.777 204.492C113.314 197.313 121.474 189.638 129.223 181.62C136.063 174.527 142.457 166.938 148.44 159.108C157.766 146.91 166.166 133.958 175.783 121.999C181.92 114.358 180.274 109.39 173.04 104.439C170.16 102.468 167.589 100.07 162.84 96.2152C168.137 95.41 172.457 93.337 175.457 94.5362C188.023 99.5389 193.389 92.3775 197.486 82.6978C202.234 71.4418 206.811 60.1173 211.166 48.69C212.314 45.6747 212.4 42.2311 213.017 38.7019C208.046 37.4512 203.846 36.4061 199.611 35.3439C218.383 22.4433 226.183 23.9509 240 32.6028V41.1689V41.1175Z" fill="white"/>
<path d="M0 83.9486C15.9429 88.66 27.8743 80.7106 39.8571 71.9389C41.64 70.6368 45.9943 73.378 49.1314 73.2923C59.8114 73.0182 66.0343 79.6313 73.1143 88.4545C66.2743 93.0802 60.2057 98.8881 52.9714 101.732C34.0114 109.202 29.2286 125.683 26.0743 142.627C24.2229 152.547 25.6629 163.1 25.8171 173.38C25.8343 174.784 26.9486 176.189 27.96 178.502C43.4057 153.729 58.3029 129.829 73.2171 105.912C74.0571 106.341 74.8971 106.769 75.7371 107.197C72.6857 116.877 69.3429 126.471 66.6343 136.237C62.7086 150.439 58.92 164.711 55.68 179.102C53.2457 189.912 52.5257 201.151 49.6971 211.842C45.7714 226.627 39.1886 228.614 27.5486 218.215C20.52 211.944 13.9029 204.475 9.6 196.251C7.62857 192.482 11.2971 185.424 13.1314 180.113C14.4 176.463 17.8971 173.448 18.6686 169.782C21.9257 154.243 24.36 138.515 27.4629 122.942C28.4743 117.819 30.5657 112.885 31.6971 109.305C20.9657 101.304 10.4743 93.4914 0 85.679V83.9658L0 83.9486Z" fill="white"/>
<path d="M77.1428 0C79.7314 1.59331 83.3657 2.58699 84.7028 4.89985C87.5828 9.8511 85.4057 13.1234 80.5199 16.7554C65.6399 27.8401 49.9371 27.3946 33.7199 21.7581C30.4114 20.6102 28.0457 16.704 25.4399 13.0035C39.1542 13.3632 51.9599 12.7293 60.0171 0H77.1599L77.1428 0Z" fill="white"/>
<path d="M152.88 11.3931C162.068 16.9953 170.777 21.9637 179.125 27.4632C189.291 34.162 188.674 41.4775 184.817 51.6541C178.148 69.2148 166.577 83.743 152.777 96.1468C148.165 100.293 140.674 104.319 135.171 103.548C129.771 102.794 125.16 95.9584 120.411 91.5896C119.554 90.8015 120.12 88.4201 119.245 87.6834C109.183 79.1001 116.948 73.3094 122.931 68.5295C132.223 61.1112 136.868 50.9345 141.531 40.7579C145.525 32.0376 148.508 22.8546 152.88 11.4102V11.3931Z" fill="white"/>
</g>
<defs>
<clipPath id="clip0_16_270">
<rect width="236" height="287" fill="white" transform="translate(183 110)"/>
</clipPath>
<clipPath id="clip1_16_270">
<rect width="240" height="233" fill="white"/>
</clipPath>
</defs>
</svg>
