<svg width="454" height="470" viewBox="0 0 454 470" fill="none" xmlns="http://www.w3.org/2000/svg">
<g opacity="0.08" clip-path="url(#clip0_372_288)">
<path d="M444.614 404.304C433.131 402.224 424.786 393.87 416.426 387.612C408.081 385.532 400.778 379.274 394.515 375.097C391.376 373.017 387.212 373.017 384.073 370.92C379.892 371.961 377.81 366.743 375.712 366.743C360.064 354.228 342.318 345.89 326.67 334.416C325.629 331.295 326.67 327.118 329.793 327.118C331.875 319.82 333.957 312.522 337.097 306.265C339.179 302.088 337.097 296.887 339.179 292.71C338.138 272.897 323.531 254.125 306.826 243.69C297.44 242.65 291.178 233.256 281.776 231.175C276.555 234.296 280.735 241.61 280.735 245.771C292.219 260.366 295.342 279.138 292.219 298.967C292.219 302.088 285.956 303.144 286.997 307.305C282.817 315.643 278.653 304.184 272.39 307.305C261.948 293.75 244.202 294.79 231.693 284.372C223.332 284.372 219.168 276.034 211.865 272.897C209.782 269.76 201.422 267.68 203.52 262.462C230.652 255.165 250.48 234.296 273.447 220.741C281.792 207.185 299.538 201.968 309.981 191.534C319.366 186.316 326.686 176.938 337.113 172.761C349.621 160.246 365.285 150.852 374.687 134.176C378.867 127.918 373.646 121.661 372.605 115.403C363.203 110.186 348.596 106.025 338.154 113.323C337.113 119.58 329.809 118.54 328.752 124.798C307.883 143.57 288.054 163.383 267.185 180.075C259.882 184.252 257.799 192.59 249.439 193.63C246.316 191.55 249.439 189.453 249.439 186.332C255.701 177.994 258.825 167.56 258.825 157.141C263.005 148.803 260.907 136.288 266.128 127.934C269.251 118.54 269.251 109.162 272.39 99.7677C279.694 92.47 274.473 78.9147 282.833 71.601C280.751 70.5608 281.792 67.424 281.792 64.3033C287.013 50.748 289.095 35.0963 287.013 20.5008C283.89 18.4203 284.931 15.2836 284.931 12.1628C282.849 7.98584 277.628 5.90535 275.546 1.72835C270.324 -3.48889 265.103 4.8491 258.841 2.7686C257.799 6.9456 258.841 12.1468 258.841 16.3238C253.619 42.394 249.455 65.3435 243.193 89.3332C239.012 93.5102 240.069 100.808 237.971 104.969C236.93 113.307 228.586 120.605 230.668 131.039C238.388 123.325 221.747 163.639 224.405 147.731C217.102 151.908 223.364 160.246 217.102 164.423C213.979 186.316 204.577 206.145 193.093 224.902C192.052 231.159 187.872 239.497 187.872 246.811C193.093 249.932 193.093 256.189 197.258 259.326C198.299 266.623 196.217 272.881 200.397 278.098C204.577 287.476 211.881 296.871 219.184 305.209L222.307 306.249C233.791 318.764 251.537 329.198 261.964 343.794C245.259 365.703 219.168 379.258 198.299 395.95C187.856 395.95 180.553 404.288 170.11 404.288C166.987 409.506 156.544 402.208 155.503 409.506C162.806 415.763 172.208 414.723 181.594 413.667C192.036 414.723 204.561 416.803 212.906 410.546C218.127 410.546 222.291 407.425 226.471 407.425C232.734 402.208 240.037 404.304 246.3 400.127C251.521 400.127 254.644 392.83 260.907 393.87C270.292 384.476 281.776 379.258 291.178 369.88L302.661 373.017C316.227 390.749 336.071 400.127 351.719 416.819C353.802 418.9 357.982 418.9 359.023 422.037C374.671 426.198 388.253 441.849 404.942 433.511C411.204 432.471 417.451 430.391 423.729 429.334C429.991 427.254 434.172 423.077 441.475 422.037C444.598 414.739 453.984 419.956 453.984 411.602C451.902 409.522 447.722 407.425 444.598 404.304H444.614Z" fill="white"/>
<path d="M150.298 339.633C148.216 338.593 146.117 336.512 146.117 333.375C150.298 328.158 155.503 323.997 153.421 316.683C157.601 312.506 153.421 306.249 155.503 301.032C154.462 289.557 138.798 294.774 131.494 292.694C127.314 291.653 121.052 290.613 121.052 284.356C124.175 281.219 123.134 273.921 125.232 269.76C125.232 261.422 126.273 253.084 130.453 245.771C138.798 246.811 145.06 240.553 150.282 236.392C156.544 234.312 160.724 230.135 165.93 227.014C175.315 222.837 177.413 213.459 176.372 204.065C171.151 192.59 159.667 190.509 151.323 181.115C142.978 182.155 141.937 169.64 133.577 173.817C128.355 182.155 117.929 177.994 111.666 184.252C108.527 190.509 108.527 198.847 103.322 204.065C107.502 211.362 98.1004 216.58 101.24 223.877C100.199 230.135 96.0182 236.392 89.7558 239.513C85.5756 242.65 77.231 240.553 75.1489 245.771C67.8454 246.811 61.583 247.851 53.2385 247.851C51.1564 245.771 48.0172 244.714 48.0172 241.594C56.3617 232.215 54.2796 219.684 61.583 209.266C58.4599 200.928 68.8865 195.711 68.8865 187.357C74.1078 179.019 74.1078 167.544 80.3702 159.206C79.3292 155.029 82.4524 151.908 82.4524 147.731C91.838 136.256 91.838 120.621 98.1004 108.106C97.0593 104.985 100.182 102.888 102.281 100.808C104.363 100.808 106.461 101.848 108.543 102.888C115.846 100.808 123.15 109.146 130.469 104.969C132.552 100.792 138.814 102.888 140.912 98.7115C140.912 93.4943 144.035 86.1965 139.871 80.9793C136.748 67.424 123.166 59.07 110.657 53.8688C107.518 54.9091 103.354 51.7883 99.1735 51.7883C94.9932 46.5711 86.6487 49.7078 80.3863 45.5308C75.1649 45.5308 68.9025 40.3136 62.6401 40.3136C59.5169 38.2331 56.3777 38.2331 53.2545 39.2733C49.0743 34.0561 44.894 40.3136 40.7297 39.2733C43.8689 41.3538 44.91 46.5711 49.0743 48.6516C50.1153 52.8286 55.3367 52.8286 57.4188 58.0298C66.8044 67.408 74.1239 78.8828 85.6076 88.277C87.6897 96.615 81.4273 104.969 77.2471 112.267C68.9025 121.645 66.8044 136.256 59.5009 146.675C51.1564 160.23 43.8529 172.745 37.5905 187.341C29.23 193.598 26.1068 206.113 18.8033 215.507C16.7212 226.982 5.23745 232.199 0.0161133 243.658C0.0161133 260.35 5.23745 279.122 20.8854 286.42C28.1889 287.46 37.5905 289.557 42.8119 285.38C49.0743 285.38 52.1974 282.259 58.4599 283.299C61.583 274.962 72.0257 274.961 78.2881 268.704C80.3702 266.624 83.5095 267.664 86.6326 267.664C86.6326 276.002 87.6737 287.476 80.3702 292.694C69.9276 299.991 55.3206 296.871 45.919 306.249C44.878 309.386 41.7388 313.547 42.7958 315.643C44.878 317.724 46.9761 319.82 44.878 321.901C48.0172 323.981 48.0172 331.295 53.2385 330.255C65.7633 337.552 76.19 344.85 85.5916 355.285L86.6326 360.502C93.9361 360.502 91.854 368.84 98.1164 369.88C101.256 377.178 91.854 381.355 89.7719 386.572C82.4684 392.83 74.1239 394.91 68.9025 400.127C58.4599 402.208 51.1564 410.562 42.8119 413.683C41.7708 419.94 36.5495 418.9 34.4513 423.077C28.1889 420.996 22.9676 427.254 17.7623 423.077C18.8033 431.415 16.7212 440.809 17.7623 450.187C17.7623 458.541 26.1068 461.662 30.2871 466.879C34.4673 467.92 37.5905 467.919 40.7297 470C59.5169 465.823 69.9596 446.01 82.4844 433.495C89.7879 420.98 102.313 415.763 110.673 403.248C122.157 392.814 130.501 379.258 140.944 367.8C148.248 357.365 157.649 347.987 160.772 335.472C156.592 336.512 155.551 340.689 150.33 339.649L150.298 339.633ZM128.371 197.807C133.593 200.944 139.855 207.185 139.855 213.459C136.732 214.499 135.675 216.596 132.552 216.596C128.371 212.419 129.412 208.242 126.289 204.081L128.371 197.823V197.807Z" fill="white"/>
</g>
<defs>
<clipPath id="clip0_372_288">
<rect width="454" height="470" fill="white"/>
</clipPath>
</defs>
</svg>
